<?xml version="1.0" encoding="UTF-8"?>
<svg width="141px" height="70px" viewBox="0 0 141 70" version="1.1" xmlns="http://www.w3.org/2000/svg" xmlns:xlink="http://www.w3.org/1999/xlink">
    <!-- Generator: Sketch 48.2 (47327) - http://www.bohemiancoding.com/sketch -->
    <title>LIC</title>
    <desc>Created with Sketch.</desc>
    <defs>
        <polygon id="path-1" points="0 70 140.634346 70 140.634346 0 0 0"></polygon>
        <polygon id="path-3" points="0 70 140.634346 70 140.634346 0 0 0"></polygon>
        <polygon id="path-5" points="0 70 140.634346 70 140.634346 0 0 0"></polygon>
        <polygon id="path-7" points="0 70 140.634346 70 140.634346 0 0 0"></polygon>
        <polygon id="path-9" points="0 70 140.634346 70 140.634346 0 0 0"></polygon>
        <polygon id="path-11" points="0 70 140.634346 70 140.634346 0 0 0"></polygon>
        <polygon id="path-13" points="0 70 140.634346 70 140.634346 0 0 0"></polygon>
        <polygon id="path-15" points="0 70 140.634346 70 140.634346 0 0 0"></polygon>
        <polygon id="path-17" points="0 70 140.634346 70 140.634346 0 0 0"></polygon>
        <polygon id="path-19" points="0 70 140.634346 70 140.634346 0 0 0"></polygon>
        <polygon id="path-21" points="0 70 140.634346 70 140.634346 0 0 0"></polygon>
        <polygon id="path-23" points="0 70 140.634346 70 140.634346 0 0 0"></polygon>
        <polygon id="path-25" points="0 70 140.634346 70 140.634346 0 0 0"></polygon>
        <polygon id="path-27" points="0 70 140.634346 70 140.634346 0 0 0"></polygon>
        <polygon id="path-29" points="0 70 140.634346 70 140.634346 0 0 0"></polygon>
        <polygon id="path-31" points="0 70 140.634346 70 140.634346 0 0 0"></polygon>
        <polygon id="path-33" points="0 70 140.634346 70 140.634346 0 0 0"></polygon>
        <polygon id="path-35" points="0 70 140.634346 70 140.634346 0 0 0"></polygon>
        <polygon id="path-37" points="0 70 140.634346 70 140.634346 0 0 0"></polygon>
        <polygon id="path-39" points="0 70 140.634346 70 140.634346 0 0 0"></polygon>
        <polygon id="path-41" points="0 70 140.634346 70 140.634346 0 0 0"></polygon>
        <polygon id="path-43" points="0 70 140.634346 70 140.634346 0 0 0"></polygon>
        <polygon id="path-45" points="0 70 140.634346 70 140.634346 0 0 0"></polygon>
        <polygon id="path-47" points="0 70 140.634346 70 140.634346 0 0 0"></polygon>
        <polygon id="path-49" points="0 70 140.634346 70 140.634346 0 0 0"></polygon>
        <polygon id="path-51" points="0 70 140.634346 70 140.634346 0 0 0"></polygon>
        <polygon id="path-53" points="0 70 140.634346 70 140.634346 0 0 0"></polygon>
        <polygon id="path-55" points="0 70 140.634346 70 140.634346 0 0 0"></polygon>
    </defs>
    <g id="Page-1" stroke="none" stroke-width="1" fill="none" fill-rule="evenodd">
        <g id="LIC" transform="translate(-19.000000, -30.000000)">
            <g transform="translate(19.000000, 30.000000)">
                <path d="M2.71903704,0.000875 C1.22190123,0.000875 0,1.220625 0,2.713375 L0,49.021875 C0,50.514625 1.22190123,51.734375 2.71903704,51.734375 L53.9214321,51.734375 L53.9214321,0.000875 L2.71903704,0.000875 Z" id="Shape" fill="#0E3170" fill-rule="nonzero"></path>
                <path d="M137.814506,0.000875 L57.275963,0.000875 L57.275963,51.734375 L137.814506,51.734375 C139.309889,51.734375 140.535296,50.514625 140.535296,49.021875 L140.535296,2.713375 C140.535296,1.220625 139.309889,0.000875 137.814506,0.000875" id="Shape" fill="#FBC200" fill-rule="nonzero"></path>
                <polygon id="Shape" fill="#0E3170" fill-rule="nonzero" points="65.9353333 45.5 65.9353333 6.35425 73.2439506 6.35425 73.2439506 38.8395 86.4341728 38.8395 86.4341728 45.5"></polygon>
                <g id="Clipped">
                    <mask id="mask-2" fill="white">
                        <use xlink:href="#path-1"></use>
                    </mask>
                    <g id="lic-a"></g>
                    <polygon id="Shape" fill="#0E3170" fill-rule="nonzero" mask="url(#mask-2)" points="93.4605432 45.49825 100.76916 45.49825 100.76916 6.3525 93.4605432 6.3525"></polygon>
                </g>
                <g id="Clipped">
                    <mask id="mask-4" fill="white">
                        <use xlink:href="#path-3"></use>
                    </mask>
                    <g id="lic-a"></g>
                    <path d="M125.109714,31.543575 L132.214973,31.543575 C132.214973,31.713325 132.223738,31.963575 132.239516,32.294325 C132.257047,32.623325 132.265812,32.884075 132.265812,33.069575 C132.265812,37.593325 131.31038,40.953325 129.399516,43.147825 C127.490405,45.344075 124.566257,46.439575 120.627072,46.439575 C118.760035,46.439575 117.15596,46.198075 115.814849,45.716825 C114.475491,45.232075 113.318454,44.483075 112.352504,43.464575 C111.028923,42.110075 110.094528,40.246325 109.551072,37.873325 C109.005862,35.502075 108.735886,31.365075 108.735886,25.467575 C108.735886,21.437325 108.89717,18.229575 109.221491,15.847825 C109.542306,13.466075 110.041936,11.691575 110.722133,10.520825 C111.775738,8.725325 113.081788,7.425075 114.643788,6.620075 C116.205788,5.815075 118.2008,5.412575 120.627072,5.412575 C124.599565,5.412575 127.490405,6.446825 129.29959,8.513575 C131.107022,10.580325 132.018627,13.903575 132.036158,18.478075 L124.957195,18.478075 L124.957195,17.538325 C124.957195,15.419075 124.61359,13.838825 123.924627,12.797575 C123.23917,11.754575 122.189072,11.234825 120.77959,11.234825 C119.031763,11.234825 117.839664,11.954075 117.203294,13.394325 C116.566923,14.834575 116.247862,18.817575 116.247862,25.341575 C116.247862,32.390575 116.558158,36.679825 117.178751,38.204075 C117.79759,39.730075 118.980923,40.491325 120.730504,40.491325 C122.360874,40.491325 123.496874,39.892825 124.14201,38.699325 C124.785393,37.504075 125.109714,35.299075 125.109714,32.079075 L125.109714,31.543575 Z" id="Shape" fill="#0E3170" fill-rule="nonzero" mask="url(#mask-4)"></path>
                </g>
                <g id="Clipped">
                    <mask id="mask-6" fill="white">
                        <use xlink:href="#path-5"></use>
                    </mask>
                    <g id="lic-a"></g>
                    <polygon id="Shape" fill="#0E3170" fill-rule="nonzero" mask="url(#mask-6)" points="0.418987654 69.83375 0.418987654 65.33625 1.30955556 65.33625 1.30955556 68.8625 4.44232099 68.8625 4.44232099 69.83375"></polygon>
                </g>
                <g id="Clipped">
                    <mask id="mask-8" fill="white">
                        <use xlink:href="#path-7"></use>
                    </mask>
                    <g id="lic-a"></g>
                    <polygon id="Shape" fill="#0E3170" fill-rule="nonzero" mask="url(#mask-8)" points="4.92266667 69.832 5.81148148 69.832 5.81148148 65.3345 4.92266667 65.3345"></polygon>
                </g>
                <g id="Clipped">
                    <mask id="mask-10" fill="white">
                        <use xlink:href="#path-9"></use>
                    </mask>
                    <g id="lic-a"></g>
                    <polygon id="Shape" fill="#0E3170" fill-rule="nonzero" mask="url(#mask-10)" points="7.30511111 66.304 7.30511111 67.326 10.2327654 67.326 10.2327654 68.29725 7.30511111 68.29725 7.30511111 69.83375 6.4162963 69.83375 6.4162963 65.3345 10.630716 65.3345 10.630716 66.304"></polygon>
                </g>
                <g id="Clipped">
                    <mask id="mask-12" fill="white">
                        <use xlink:href="#path-11"></use>
                    </mask>
                    <g id="lic-a"></g>
                    <polygon id="Shape" fill="#0E3170" fill-rule="nonzero" mask="url(#mask-12)" points="11.035679 69.83375 11.035679 65.33625 15.2921728 65.33625 15.2921728 66.304 11.9244938 66.304 11.9244938 67.11425 14.8872099 67.11425 14.8872099 67.9875 11.9244938 67.9875 11.9244938 68.8625 15.4219012 68.8625 15.4219012 69.83375"></polygon>
                </g>
                <g id="Clipped">
                    <mask id="mask-14" fill="white">
                        <use xlink:href="#path-13"></use>
                    </mask>
                    <g id="lic-a"></g>
                    <polygon id="Shape" fill="#0E3170" fill-rule="nonzero" mask="url(#mask-14)" points="18.2250864 69.832 19.1139012 69.832 19.1139012 65.3345 18.2250864 65.3345"></polygon>
                </g>
                <g id="Clipped">
                    <mask id="mask-16" fill="white">
                        <use xlink:href="#path-15"></use>
                    </mask>
                    <g id="lic-a"></g>
                    <polygon id="Shape" fill="#0E3170" fill-rule="nonzero" mask="url(#mask-16)" points="23.1617778 69.83375 20.6075309 66.69075 20.6075309 69.83375 19.718716 69.83375 19.718716 65.33625 20.6075309 65.33625 23.1617778 68.4775 23.1617778 65.33625 24.0505926 65.33625 24.0505926 69.83375"></polygon>
                </g>
                <g id="Clipped">
                    <mask id="mask-18" fill="white">
                        <use xlink:href="#path-17"></use>
                    </mask>
                    <g id="lic-a"></g>
                    <path d="M28.7653432,68.380725 C28.7653432,68.602975 28.7180099,68.812975 28.6233432,69.008975 C28.5286765,69.208475 28.3831704,69.379975 28.1885778,69.526975 C27.9939852,69.675725 27.7503062,69.791225 27.4575407,69.875225 C27.1647753,69.957475 26.8176642,70.001225 26.4162074,70.001225 C26.2128494,70.001225 26.002479,69.978475 25.7868494,69.936475 C25.6010222,69.901475 25.3976642,69.848975 25.1750222,69.775475 C24.9523802,69.701975 24.7385037,69.596975 24.5298864,69.460475 L24.8384296,68.560975 C25.0225037,68.679975 25.2083309,68.774475 25.394158,68.840975 C25.5817383,68.907475 25.7500346,68.954725 25.9025531,68.984475 C26.0813679,69.019475 26.2514173,69.038725 26.4162074,69.042225 C26.9210963,69.042225 27.2980099,68.984475 27.5469481,68.868975 C27.7923802,68.753475 27.9168494,68.601225 27.9168494,68.413975 C27.9168494,68.293225 27.8782815,68.203975 27.7993926,68.147975 C27.7222568,68.093725 27.6048,68.060475 27.441763,68.053475 C27.4049481,68.049975 27.3365778,68.044725 27.2331457,68.037725 C27.1297136,68.030725 27.0034914,68.023725 26.8562321,68.014975 C26.7089728,68.006225 26.5424296,67.995725 26.3618617,67.986975 C26.1795407,67.979975 25.9919605,67.969475 25.7973679,67.957225 C25.6010222,67.943225 25.4222074,67.908225 25.2591704,67.853975 C25.0943802,67.797975 24.9541333,67.717475 24.8349235,67.614225 C24.7139605,67.507475 24.6228,67.379725 24.5544296,67.227475 C24.4878123,67.075225 24.4527506,66.894975 24.4527506,66.690225 C24.4527506,66.483725 24.5053432,66.291225 24.6122815,66.109225 C24.7174667,65.927225 24.8699852,65.767975 25.068084,65.633225 C25.2644296,65.498475 25.5028494,65.391725 25.7850963,65.314725 C26.063837,65.237725 26.3793926,65.199225 26.7247506,65.199225 C26.9298617,65.199225 27.138479,65.218475 27.3506025,65.256975 C27.5329235,65.290225 27.7345284,65.340975 27.9589235,65.405725 C28.1833185,65.468725 28.4007012,65.563225 28.6128247,65.687475 L28.3463556,66.574725 C28.2411704,66.520475 28.1237136,66.464475 27.9939852,66.413725 C27.8607506,66.362975 27.7240099,66.317475 27.5802568,66.278975 C27.4382568,66.240475 27.2927506,66.210725 27.1472444,66.189725 C26.9999852,66.166975 26.8597383,66.156475 26.7247506,66.156475 C26.5231457,66.156475 26.3355654,66.168725 26.163763,66.193225 C25.9884543,66.215975 25.8376889,66.250975 25.7114667,66.298225 C25.5834914,66.345475 25.4835654,66.403225 25.4099358,66.471475 C25.3380593,66.539725 25.3012444,66.616725 25.3012444,66.702475 C25.3012444,66.814475 25.3380593,66.898475 25.413442,66.954475 C25.4870716,67.010475 25.595763,67.040225 25.739516,67.048975 C25.9025531,67.059475 26.1287012,67.071725 26.4214667,67.089225 C26.7159852,67.104975 27.0613432,67.124225 27.4628,67.146975 C27.6644049,67.159225 27.8449728,67.192475 28.0045037,67.250225 C28.1640346,67.306225 28.3007753,67.384975 28.4147259,67.486475 C28.5269235,67.589725 28.6128247,67.715725 28.6741827,67.866225 C28.7337877,68.016725 28.7653432,68.188225 28.7653432,68.380725 Z M33.3980494,67.5843 C33.3980494,67.9098 33.350716,68.21605 33.2525432,68.5048 C33.1543704,68.79355 33.0141235,69.04905 32.8335556,69.2678 C32.6512346,69.48655 32.4303457,69.6598 32.172642,69.7893 C31.9131852,69.91705 31.6221728,69.98005 31.2996049,69.98005 C30.975284,69.98005 30.6842716,69.91705 30.4265679,69.7893 C30.165358,69.6598 29.9444691,69.48655 29.7621481,69.2678 C29.5780741,69.04905 29.4378272,68.79355 29.3414074,68.5048 C29.2432346,68.21605 29.1941481,67.9098 29.1941481,67.5843 L29.1941481,65.33555 L30.0812099,65.33555 L30.0812099,67.5843 C30.0812099,67.77505 30.1057531,67.96055 30.1548395,68.13205 C30.2039259,68.30705 30.2793086,68.4593 30.3774815,68.5923 C30.4774074,68.7253 30.6018765,68.8303 30.7561481,68.9073 C30.9086667,68.9843 31.0909877,69.0228 31.2996049,69.0228 C31.5082222,69.0228 31.687037,68.9843 31.8378025,68.9073 C31.990321,68.8303 32.1165432,68.7253 32.214716,68.5923 C32.314642,68.4593 32.3882716,68.30705 32.437358,68.13205 C32.4846914,67.96055 32.5109877,67.77505 32.5109877,67.5843 L32.5109877,65.33555 L33.3980494,65.33555 L33.3980494,67.5843 Z M37.4725728,66.81185 C37.4725728,66.7051 37.4567951,66.61935 37.4287457,66.55285 C37.3971901,66.4846 37.3603753,66.43385 37.3165481,66.39885 C37.272721,66.36035 37.2271407,66.3376 37.1833136,66.32535 C37.1377333,66.31135 37.1009185,66.30435 37.0728691,66.30435 L34.9183259,66.30435 L34.9183259,67.32635 L37.0728691,67.32635 C37.0939062,67.32635 37.1254617,67.31935 37.1692889,67.3036 C37.2148691,67.28785 37.2586963,67.26335 37.3025235,67.2231 C37.3498568,67.1846 37.3884247,67.13385 37.4234864,67.06735 C37.455042,66.9991 37.4725728,66.9151 37.4725728,66.81185 Z M38.3613877,66.81185 C38.3613877,67.0096 38.3403506,67.18285 38.3017827,67.33335 C38.2597086,67.48385 38.207116,67.61335 38.1422519,67.72185 C38.0756346,67.83035 38.0020049,67.9231 37.9196099,67.99485 C37.8372148,68.06835 37.7530667,68.1261 37.6689185,68.1681 L38.2860049,69.8341 L37.3358321,69.8341 L36.7713383,68.2976 L34.9183259,68.2976 L34.9183259,69.8341 L34.0295111,69.8341 L34.0295111,65.33485 L37.2061037,65.33485 C37.2990173,65.33485 37.4129679,65.35585 37.5462025,65.39785 C37.677684,65.4416 37.8056593,65.5186 37.9283753,65.62535 C38.0475852,65.73735 38.1510173,65.8861 38.2351654,66.07685 C38.3193136,66.26585 38.3613877,66.5126 38.3613877,66.81185 Z M41.0369481,66.176075 L40.2287753,67.962825 L41.845121,67.962825 L41.0369481,66.176075 Z M42.6866025,69.833575 L42.2781333,68.932325 L39.7905037,68.932325 L39.3820346,69.833575 L38.437121,69.833575 L40.4671951,65.336075 L41.601442,65.336075 L43.629763,69.833575 L42.6866025,69.833575 Z" id="Shape" fill="#0E3170" fill-rule="nonzero" mask="url(#mask-18)"></path>
                </g>
                <g id="Clipped">
                    <mask id="mask-20" fill="white">
                        <use xlink:href="#path-19"></use>
                    </mask>
                    <g id="lic-a"></g>
                    <polygon id="Shape" fill="#0E3170" fill-rule="nonzero" mask="url(#mask-20)" points="47.2509383 69.83375 44.6966914 66.69075 44.6966914 69.83375 43.8078765 69.83375 43.8078765 65.33625 44.6966914 65.33625 47.2509383 68.4775 47.2509383 65.33625 48.1397531 65.33625 48.1397531 69.83375"></polygon>
                </g>
                <g id="Clipped">
                    <mask id="mask-22" fill="white">
                        <use xlink:href="#path-21"></use>
                    </mask>
                    <g id="lic-a"></g>
                    <path d="M53.2230025,68.65075 C53.1353481,68.84325 53.0231506,69.02 52.8846568,69.181 C52.747916,69.342 52.584879,69.482 52.3990519,69.601 C52.2149778,69.72175 52.0081136,69.8145 51.7802123,69.881 C51.550558,69.9475 51.2998667,69.98075 51.0263852,69.98075 C50.6389531,69.98075 50.2935951,69.91775 49.988558,69.78825 C49.683521,69.65875 49.4275704,69.48725 49.2172,69.2685 C49.0068296,69.04975 48.8455457,68.79425 48.7351012,68.5055 C48.6246568,68.21675 48.568558,67.90875 48.568558,67.585 C48.568558,67.25775 48.6246568,66.94975 48.7351012,66.661 C48.8455457,66.37225 49.0068296,66.1185 49.2172,65.89975 C49.4275704,65.681 49.683521,65.50775 49.988558,65.38 C50.2935951,65.25225 50.6389531,65.1875 51.0263852,65.1875 C51.2893481,65.1875 51.5330272,65.21725 51.7556691,65.2785 C51.9800642,65.3415 52.1834222,65.429 52.3657432,65.5445 C52.5463111,65.6565 52.705842,65.7895 52.8443358,65.94175 C52.9810765,66.094 53.0967802,66.26025 53.1861877,66.43875 L52.3885333,66.95325 C52.3394469,66.8465 52.2710765,66.74675 52.1851753,66.6505 C52.0992741,66.55775 51.9975951,66.47725 51.8766321,66.409 C51.7574222,66.339 51.6241877,66.283 51.4734222,66.24275 C51.3244099,66.20425 51.1631259,66.18325 50.9913235,66.18325 C50.7423852,66.18325 50.5250025,66.22 50.3374222,66.29525 C50.1515951,66.36875 49.9955704,66.472 49.8746074,66.59975 C49.7518914,66.7275 49.6589778,66.878 49.5958667,67.04775 C49.5345086,67.2175 49.5029531,67.39425 49.5029531,67.585 C49.5029531,67.767 49.5345086,67.9455 49.5958667,68.1135 C49.6589778,68.28325 49.7518914,68.432 49.8746074,68.55975 C49.9955704,68.6875 50.1515951,68.79075 50.3374222,68.8695 C50.5250025,68.9465 50.7423852,68.98325 50.9913235,68.98325 C51.1736444,68.98325 51.3419407,68.96225 51.4962123,68.91675 C51.652237,68.873 51.7907309,68.81175 51.9099407,68.73475 C52.0309037,68.65775 52.1360889,68.56675 52.2237432,68.46525 C52.3096444,68.362 52.3780148,68.25175 52.4200889,68.13625 L53.2230025,68.65075 Z" id="Shape" fill="#0E3170" fill-rule="nonzero" mask="url(#mask-22)"></path>
                </g>
                <g id="Clipped">
                    <mask id="mask-24" fill="white">
                        <use xlink:href="#path-23"></use>
                    </mask>
                    <g id="lic-a"></g>
                    <polygon id="Shape" fill="#0E3170" fill-rule="nonzero" mask="url(#mask-24)" points="53.5252346 69.83375 53.5252346 65.33625 57.7817284 65.33625 57.7817284 66.304 54.4140494 66.304 54.4140494 67.11425 57.3767654 67.11425 57.3767654 67.9875 54.4140494 67.9875 54.4140494 68.8625 57.9114568 68.8625 57.9114568 69.83375"></polygon>
                </g>
                <g id="Clipped">
                    <mask id="mask-26" fill="white">
                        <use xlink:href="#path-25"></use>
                    </mask>
                    <g id="lic-a"></g>
                    <path d="M64.7875877,68.65075 C64.6999333,68.84325 64.5877358,69.02 64.4509951,69.181 C64.3125012,69.342 64.1512173,69.482 63.9653901,69.601 C63.781316,69.72175 63.5744519,69.8145 63.3447975,69.881 C63.1151432,69.9475 62.8644519,69.98075 62.5927235,69.98075 C62.2052914,69.98075 61.8581802,69.91775 61.5548963,69.78825 C61.2498593,69.65875 60.9921556,69.48725 60.7835383,69.2685 C60.5731679,69.04975 60.411884,68.79425 60.2996864,68.5055 C60.189242,68.21675 60.1348963,67.90875 60.1348963,67.585 C60.1348963,67.25775 60.189242,66.94975 60.2996864,66.661 C60.411884,66.37225 60.5731679,66.1185 60.7835383,65.89975 C60.9921556,65.681 61.2498593,65.50775 61.5548963,65.38 C61.8581802,65.25225 62.2052914,65.1875 62.5927235,65.1875 C62.8539333,65.1875 63.0976123,65.21725 63.3220074,65.2785 C63.5464025,65.3415 63.7480074,65.429 63.9303284,65.5445 C64.1108963,65.6565 64.2721802,65.7895 64.408921,65.94175 C64.5474148,66.094 64.6631185,66.26025 64.7525259,66.43875 L63.9548716,66.95325 C63.9040321,66.8465 63.8356617,66.74675 63.7497605,66.6505 C63.6638593,66.55775 63.5621802,66.47725 63.4412173,66.409 C63.3237605,66.339 63.1887728,66.283 63.0397605,66.24275 C62.8889951,66.20425 62.7277111,66.18325 62.5576617,66.18325 C62.3069704,66.18325 62.0895877,66.22 61.9020074,66.29525 C61.7161802,66.36875 61.5619086,66.472 61.4391926,66.59975 C61.3164765,66.7275 61.223563,66.878 61.1622049,67.04775 C61.0990938,67.2175 61.0675383,67.39425 61.0675383,67.585 C61.0675383,67.767 61.0990938,67.9455 61.1622049,68.1135 C61.223563,68.28325 61.3164765,68.432 61.4391926,68.55975 C61.5619086,68.6875 61.7161802,68.79075 61.9020074,68.8695 C62.0895877,68.9465 62.3069704,68.98325 62.5576617,68.98325 C62.7382296,68.98325 62.9065259,68.96225 63.0625506,68.91675 C63.2168222,68.873 63.355316,68.81175 63.476279,68.73475 C63.5954889,68.65775 63.7006741,68.56675 63.7883284,68.46525 C63.8759827,68.362 63.9426,68.25175 63.9846741,68.13625 L64.7875877,68.65075 Z M68.7148519,67.5843 C68.7148519,67.3918 68.6850494,67.20805 68.6271975,67.0348 C68.5675926,66.8598 68.4781852,66.70755 68.3589753,66.57455 C68.2397654,66.4433 68.0907531,66.33655 67.9101852,66.25955 C67.7296173,66.18255 67.5192469,66.14405 67.2825802,66.14405 C67.0424074,66.14405 66.8337901,66.18255 66.6532222,66.25955 C66.4744074,66.33655 66.323642,66.4433 66.202679,66.57455 C66.0852222,66.70755 65.9940617,66.8598 65.9362099,67.0348 C65.878358,67.20805 65.8485556,67.3918 65.8485556,67.5843 C65.8485556,67.77505 65.878358,67.96055 65.9362099,68.13205 C65.9940617,68.30705 66.0852222,68.4593 66.202679,68.5923 C66.323642,68.7253 66.4744074,68.8303 66.6532222,68.9073 C66.8337901,68.9843 67.0424074,69.0228 67.2825802,69.0228 C67.5192469,69.0228 67.7296173,68.9843 67.9101852,68.9073 C68.0907531,68.8303 68.2397654,68.7253 68.3589753,68.5923 C68.4781852,68.4593 68.5675926,68.30705 68.6271975,68.13205 C68.6850494,67.96055 68.7148519,67.77505 68.7148519,67.5843 Z M69.6492469,67.5843 C69.6492469,67.9098 69.5949012,68.21605 69.4862099,68.5048 C69.3810247,68.79355 69.225,69.04905 69.021642,69.2678 C68.818284,69.48655 68.5693457,69.6598 68.2765802,69.7893 C67.9838148,69.91705 67.6524815,69.98005 67.2825802,69.98005 C66.912679,69.98005 66.5795926,69.91705 66.2868272,69.7893 C65.9940617,69.6598 65.7468765,69.48655 65.5417654,69.2678 C65.3384074,69.04905 65.1823827,68.79355 65.0754444,68.5048 C64.9667531,68.21605 64.9141605,67.9098 64.9141605,67.5843 C64.9141605,67.25705 64.9667531,66.9508 65.0754444,66.66205 C65.1823827,66.3733 65.3384074,66.1178 65.5417654,65.89905 C65.7468765,65.6803 65.9940617,65.50705 66.2868272,65.3793 C66.5795926,65.25155 66.912679,65.1868 67.2825802,65.1868 C67.6524815,65.1868 67.9838148,65.25155 68.2765802,65.3793 C68.5693457,65.50705 68.818284,65.6803 69.021642,65.89905 C69.225,66.1178 69.3810247,66.3733 69.4862099,66.66205 C69.5949012,66.9508 69.6492469,67.25705 69.6492469,67.5843 Z M73.4194346,66.81185 C73.4194346,66.7051 73.4054099,66.61935 73.3756074,66.55285 C73.3440519,66.4846 73.3089901,66.43385 73.2634099,66.39885 C73.2195827,66.36035 73.1740025,66.3376 73.1301753,66.32535 C73.0845951,66.31135 73.0477802,66.30435 73.021484,66.30435 L70.8651877,66.30435 L70.8651877,67.32635 L73.021484,67.32635 C73.0407679,67.32635 73.0740765,67.31935 73.1161506,67.3036 C73.1617309,67.28785 73.205558,67.26335 73.2511383,67.2231 C73.2967185,67.1846 73.3352864,67.13385 73.3703481,67.06735 C73.4036568,66.9991 73.4194346,66.9151 73.4194346,66.81185 Z M74.3082494,66.81185 C74.3082494,67.0096 74.2889654,67.18285 74.2486444,67.33335 C74.2065704,67.48385 74.1539778,67.61335 74.0891136,67.72185 C74.0242494,67.83035 73.9506198,67.9231 73.8664716,67.99485 C73.7840765,68.06835 73.6999284,68.1261 73.6157802,68.1681 L74.2328667,69.8341 L73.2844469,69.8341 L72.7182,68.2976 L70.8651877,68.2976 L70.8651877,69.8341 L69.9781259,69.8341 L69.9781259,65.33485 L73.1529654,65.33485 C73.245879,65.33485 73.3615827,65.35585 73.4930642,65.39785 C73.6262988,65.4416 73.752521,65.5186 73.875237,65.62535 C73.9962,65.73735 74.0996321,65.8861 74.1837802,66.07685 C74.2661753,66.26585 74.3082494,66.5126 74.3082494,66.81185 Z M78.2558494,66.81185 C78.2558494,66.7051 78.2418247,66.61935 78.2120222,66.55285 C78.1804667,66.4846 78.1454049,66.43385 78.0998247,66.39885 C78.0577506,66.36035 78.0121704,66.3376 77.9665901,66.32535 C77.9210099,66.31135 77.8841951,66.30435 77.8561457,66.30435 L75.7016025,66.30435 L75.7016025,67.32635 L77.8561457,67.32635 C77.8771827,67.32635 77.9104914,67.31935 77.9543185,67.3036 C77.9981457,67.28785 78.0419728,67.26335 78.0875531,67.2231 C78.1331333,67.1846 78.1717012,67.13385 78.206763,67.06735 C78.2400716,66.9991 78.2558494,66.9151 78.2558494,66.81185 Z M79.1446642,66.81185 C79.1446642,67.1076 79.100837,67.3526 79.0149358,67.5451 C78.9272815,67.7376 78.8203432,67.88985 78.6976272,68.00185 C78.5766642,68.1121 78.4469358,68.1891 78.3172074,68.23285 C78.1857259,68.27485 78.0752815,68.2976 77.9893802,68.2976 L75.7016025,68.2976 L75.7016025,69.8341 L74.8127877,69.8341 L74.8127877,65.33485 L77.9893802,65.33485 C78.0822938,65.33485 78.1979975,65.35585 78.329479,65.39785 C78.4627136,65.4416 78.5889358,65.5186 78.7116519,65.62535 C78.8326148,65.73735 78.9360469,65.8861 79.0201951,66.07685 C79.1025901,66.26585 79.1446642,66.5126 79.1446642,66.81185 Z M83.193242,67.5843 C83.193242,67.3918 83.1634395,67.20805 83.1038346,67.0348 C83.0459827,66.8598 82.9565753,66.70755 82.8373654,66.57455 C82.7181556,66.4433 82.5691432,66.33655 82.3885753,66.25955 C82.2080074,66.18255 81.997637,66.14405 81.7609704,66.14405 C81.5207975,66.14405 81.3104272,66.18255 81.1298593,66.25955 C80.9527975,66.33655 80.8020321,66.4433 80.6810691,66.57455 C80.5618593,66.70755 80.4724519,66.8598 80.4146,67.0348 C80.3549951,67.20805 80.3251926,67.3918 80.3251926,67.5843 C80.3251926,67.77505 80.3549951,67.96055 80.4146,68.13205 C80.4724519,68.30705 80.5618593,68.4593 80.6810691,68.5923 C80.8020321,68.7253 80.9527975,68.8303 81.1298593,68.9073 C81.3104272,68.9843 81.5207975,69.0228 81.7609704,69.0228 C81.997637,69.0228 82.2080074,68.9843 82.3885753,68.9073 C82.5691432,68.8303 82.7181556,68.7253 82.8373654,68.5923 C82.9565753,68.4593 83.0459827,68.30705 83.1038346,68.13205 C83.1634395,67.96055 83.193242,67.77505 83.193242,67.5843 Z M84.125884,67.5843 C84.125884,67.9098 84.0732914,68.21605 83.9646,68.5048 C83.8576617,68.79355 83.701637,69.04905 83.498279,69.2678 C83.294921,69.48655 83.0459827,69.6598 82.7549704,69.7893 C82.4604519,69.91705 82.1308716,69.98005 81.7609704,69.98005 C81.389316,69.98005 81.0579827,69.91705 80.7652173,69.7893 C80.4724519,69.6598 80.2252667,69.48655 80.0201556,69.2678 C79.8167975,69.04905 79.6607728,68.79355 79.5538346,68.5048 C79.4451432,68.21605 79.3907975,67.9098 79.3907975,67.5843 C79.3907975,67.25705 79.4451432,66.9508 79.5538346,66.66205 C79.6607728,66.3733 79.8167975,66.1178 80.0201556,65.89905 C80.2252667,65.6803 80.4724519,65.50705 80.7652173,65.3793 C81.0579827,65.25155 81.389316,65.1868 81.7609704,65.1868 C82.1308716,65.1868 82.4604519,65.25155 82.7549704,65.3793 C83.0459827,65.50705 83.294921,65.6803 83.498279,65.89905 C83.701637,66.1178 83.8576617,66.3733 83.9646,66.66205 C84.0732914,66.9508 84.125884,67.25705 84.125884,67.5843 Z M87.8978247,66.81185 C87.8978247,66.7051 87.8820469,66.61935 87.8539975,66.55285 C87.822442,66.4846 87.7856272,66.43385 87.7418,66.39885 C87.6979728,66.36035 87.6523926,66.3376 87.6085654,66.32535 C87.5629852,66.31135 87.5261704,66.30435 87.498121,66.30435 L85.3435778,66.30435 L85.3435778,67.32635 L87.498121,67.32635 C87.519158,67.32635 87.5524667,67.31935 87.5945407,67.3036 C87.640121,67.28785 87.6839481,67.26335 87.7277753,67.2231 C87.7751086,67.1846 87.8136765,67.13385 87.8487383,67.06735 C87.8802938,66.9991 87.8978247,66.9151 87.8978247,66.81185 Z M88.7866395,66.81185 C88.7866395,67.0096 88.7673556,67.18285 88.7270346,67.33335 C88.6849605,67.48385 88.6323679,67.61335 88.5675037,67.72185 C88.5026395,67.83035 88.4290099,67.9231 88.3448617,67.99485 C88.2624667,68.06835 88.1800716,68.1261 88.0941704,68.1681 L88.7112568,69.8341 L87.762837,69.8341 L87.1983432,68.2976 L85.3435778,68.2976 L85.3435778,69.8341 L84.454763,69.8341 L84.454763,65.33485 L87.6313556,65.33485 C87.7242691,65.33485 87.8382198,65.35585 87.9714543,65.39785 C88.1046889,65.4416 88.2309111,65.5186 88.3536272,65.62535 C88.4745901,65.73735 88.5762691,65.8861 88.6604173,66.07685 C88.7445654,66.26585 88.7866395,66.5126 88.7866395,66.81185 Z M91.3612222,66.176075 L90.5530494,67.962825 L92.1693951,67.962825 L91.3612222,66.176075 Z M93.0108765,69.833575 L92.6041605,68.932325 L90.1147778,68.932325 L89.7063086,69.833575 L88.7613951,69.833575 L90.7914691,65.336075 L91.925716,65.336075 L93.9557901,69.833575 L93.0108765,69.833575 Z" id="Shape" fill="#0E3170" fill-rule="nonzero" mask="url(#mask-26)"></path>
                </g>
                <g id="Clipped">
                    <mask id="mask-28" fill="white">
                        <use xlink:href="#path-27"></use>
                    </mask>
                    <g id="lic-a"></g>
                    <polygon id="Shape" fill="#0E3170" fill-rule="nonzero" mask="url(#mask-28)" points="95.546716 66.304 95.546716 69.83375 94.6614074 69.83375 94.6614074 66.304 93.0731111 66.304 93.0731111 65.3345 97.1350123 65.3345 97.1350123 66.304"></polygon>
                </g>
                <g id="Clipped">
                    <mask id="mask-30" fill="white">
                        <use xlink:href="#path-29"></use>
                    </mask>
                    <g id="lic-a"></g>
                    <polygon id="Shape" fill="#0E3170" fill-rule="nonzero" mask="url(#mask-30)" points="97.5908148 69.832 98.4796296 69.832 98.4796296 65.3345 97.5908148 65.3345"></polygon>
                </g>
                <g id="Clipped">
                    <mask id="mask-32" fill="white">
                        <use xlink:href="#path-31"></use>
                    </mask>
                    <g id="lic-a"></g>
                    <path d="M102.708249,67.5843 C102.708249,67.3918 102.678447,67.20805 102.620595,67.0348 C102.562743,66.8598 102.473336,66.70755 102.354126,66.57455 C102.233163,66.4433 102.084151,66.33655 101.903583,66.25955 C101.723015,66.18255 101.514398,66.14405 101.275978,66.14405 C101.037558,66.14405 100.827188,66.18255 100.64662,66.25955 C100.467805,66.33655 100.318793,66.4433 100.19783,66.57455 C100.07862,66.70755 99.9892123,66.8598 99.9296074,67.0348 C99.8717556,67.20805 99.8419531,67.3918 99.8419531,67.5843 C99.8419531,67.77505 99.8717556,67.96055 99.9296074,68.13205 C99.9892123,68.30705 100.07862,68.4593 100.19783,68.5923 C100.318793,68.7253 100.467805,68.8303 100.64662,68.9073 C100.827188,68.9843 101.037558,69.0228 101.275978,69.0228 C101.514398,69.0228 101.723015,68.9843 101.903583,68.9073 C102.084151,68.8303 102.233163,68.7253 102.354126,68.5923 C102.473336,68.4593 102.562743,68.30705 102.620595,68.13205 C102.678447,67.96055 102.708249,67.77505 102.708249,67.5843 M103.642644,67.5843 C103.642644,67.9098 103.590052,68.21605 103.48136,68.5048 C103.374422,68.79355 103.218398,69.04905 103.01504,69.2678 C102.811681,69.48655 102.562743,69.6598 102.269978,69.7893 C101.977212,69.91705 101.645879,69.98005 101.275978,69.98005 C100.906077,69.98005 100.574743,69.91705 100.280225,69.7893 C99.9874593,69.6598 99.7402741,69.48655 99.536916,69.2678 C99.3318049,69.04905 99.1757802,68.79355 99.068842,68.5048 C98.9619037,68.21605 98.907558,67.9098 98.907558,67.5843 C98.907558,67.25705 98.9619037,66.9508 99.068842,66.66205 C99.1757802,66.3733 99.3318049,66.1178 99.536916,65.89905 C99.7402741,65.6803 99.9874593,65.50705 100.280225,65.3793 C100.574743,65.25155 100.906077,65.1868 101.275978,65.1868 C101.645879,65.1868 101.977212,65.25155 102.269978,65.3793 C102.562743,65.50705 102.811681,65.6803 103.01504,65.89905 C103.218398,66.1178 103.374422,66.3733 103.48136,66.66205 C103.590052,66.9508 103.642644,67.25705 103.642644,67.5843" id="Shape" fill="#0E3170" fill-rule="nonzero" mask="url(#mask-32)"></path>
                </g>
                <g id="Clipped">
                    <mask id="mask-34" fill="white">
                        <use xlink:href="#path-33"></use>
                    </mask>
                    <g id="lic-a"></g>
                    <polygon id="Shape" fill="#0E3170" fill-rule="nonzero" mask="url(#mask-34)" points="107.415111 69.83375 104.860864 66.69075 104.860864 69.83375 103.972049 69.83375 103.972049 65.33625 104.860864 65.33625 107.415111 68.4775 107.415111 65.33625 108.303926 65.33625 108.303926 69.83375"></polygon>
                </g>
                <g id="Clipped">
                    <mask id="mask-36" fill="white">
                        <use xlink:href="#path-35"></use>
                    </mask>
                    <g id="lic-a"></g>
                    <path d="M114.753881,67.5843 C114.753881,67.3918 114.724079,67.20805 114.664474,67.0348 C114.606622,66.8598 114.517215,66.70755 114.398005,66.57455 C114.278795,66.4433 114.129783,66.33655 113.949215,66.25955 C113.768647,66.18255 113.558277,66.14405 113.32161,66.14405 C113.081437,66.14405 112.871067,66.18255 112.692252,66.25955 C112.513437,66.33655 112.362672,66.4433 112.241709,66.57455 C112.122499,66.70755 112.033091,66.8598 111.97524,67.0348 C111.915635,67.20805 111.885832,67.3918 111.885832,67.5843 C111.885832,67.77505 111.915635,67.96055 111.97524,68.13205 C112.033091,68.30705 112.122499,68.4593 112.241709,68.5923 C112.362672,68.7253 112.513437,68.8303 112.692252,68.9073 C112.871067,68.9843 113.081437,69.0228 113.32161,69.0228 C113.558277,69.0228 113.768647,68.9843 113.949215,68.9073 C114.129783,68.8303 114.278795,68.7253 114.398005,68.5923 C114.517215,68.4593 114.606622,68.30705 114.664474,68.13205 C114.724079,67.96055 114.753881,67.77505 114.753881,67.5843 M115.686523,67.5843 C115.686523,67.9098 115.633931,68.21605 115.52524,68.5048 C115.418301,68.79355 115.262277,69.04905 115.058919,69.2678 C114.857314,69.48655 114.608375,69.6598 114.31561,69.7893 C114.021091,69.91705 113.691511,69.98005 113.32161,69.98005 C112.949956,69.98005 112.618622,69.91705 112.325857,69.7893 C112.033091,69.6598 111.785906,69.48655 111.580795,69.2678 C111.377437,69.04905 111.221412,68.79355 111.114474,68.5048 C111.005783,68.21605 110.95319,67.9098 110.95319,67.5843 C110.95319,67.25705 111.005783,66.9508 111.114474,66.66205 C111.221412,66.3733 111.377437,66.1178 111.580795,65.89905 C111.785906,65.6803 112.033091,65.50705 112.325857,65.3793 C112.618622,65.25155 112.949956,65.1868 113.32161,65.1868 C113.691511,65.1868 114.021091,65.25155 114.31561,65.3793 C114.608375,65.50705 114.857314,65.6803 115.058919,65.89905 C115.262277,66.1178 115.418301,66.3733 115.52524,66.66205 C115.633931,66.9508 115.686523,67.25705 115.686523,67.5843" id="Shape" fill="#0E3170" fill-rule="nonzero" mask="url(#mask-36)"></path>
                </g>
                <g id="Clipped">
                    <mask id="mask-38" fill="white">
                        <use xlink:href="#path-37"></use>
                    </mask>
                    <g id="lic-a"></g>
                    <polygon id="Shape" fill="#0E3170" fill-rule="nonzero" mask="url(#mask-38)" points="116.904568 66.304 116.904568 67.326 119.833975 67.326 119.833975 68.29725 116.904568 68.29725 116.904568 69.83375 116.015753 69.83375 116.015753 65.3345 120.230173 65.3345 120.230173 66.304"></polygon>
                </g>
                <g id="Clipped">
                    <mask id="mask-40" fill="white">
                        <use xlink:href="#path-39"></use>
                    </mask>
                    <g id="lic-a"></g>
                    <polygon id="Shape" fill="#0E3170" fill-rule="nonzero" mask="url(#mask-40)" points="123.261259 69.832 124.150074 69.832 124.150074 65.3345 123.261259 65.3345"></polygon>
                </g>
                <g id="Clipped">
                    <mask id="mask-42" fill="white">
                        <use xlink:href="#path-41"></use>
                    </mask>
                    <g id="lic-a"></g>
                    <polygon id="Shape" fill="#0E3170" fill-rule="nonzero" mask="url(#mask-42)" points="127.994593 69.83375 125.442099 66.69075 125.442099 69.83375 124.553284 69.83375 124.553284 65.33625 125.442099 65.33625 127.994593 68.4775 127.994593 65.33625 128.883407 65.33625 128.883407 69.83375"></polygon>
                </g>
                <g id="Clipped">
                    <mask id="mask-44" fill="white">
                        <use xlink:href="#path-43"></use>
                    </mask>
                    <g id="lic-a"></g>
                    <path d="M133.027704,67.5843 C133.027704,67.4023 133.001407,67.2343 132.950568,67.0733 C132.897975,66.9123 132.817333,66.7723 132.706889,66.65505 C132.598198,66.53605 132.461457,66.44505 132.296667,66.3768 C132.130123,66.3068 131.935531,66.2718 131.711136,66.2718 L130.175432,66.2718 L130.175432,68.89505 L131.711136,68.89505 C131.935531,68.89505 132.130123,68.86005 132.296667,68.79005 C132.461457,68.72355 132.598198,68.6308 132.706889,68.5118 C132.817333,68.39455 132.897975,68.2563 132.950568,68.0953 C133.001407,67.93255 133.027704,67.76455 133.027704,67.5843 M133.962099,67.5843 C133.962099,67.8923 133.913012,68.18455 133.813086,68.45755 C133.714914,68.73055 133.569407,68.9703 133.378321,69.1733 C133.188988,69.3763 132.955827,69.5373 132.680593,69.6563 C132.403605,69.77355 132.088049,69.83305 131.73042,69.83305 L129.286617,69.83305 L129.286617,65.33555 L131.73042,65.33555 C132.088049,65.33555 132.403605,65.3933 132.680593,65.51055 C132.955827,65.62955 133.188988,65.79055 133.378321,65.99355 C133.569407,66.19655 133.714914,66.4363 133.813086,66.7093 C133.913012,66.98405 133.962099,67.27455 133.962099,67.5843" id="Shape" fill="#0E3170" fill-rule="nonzero" mask="url(#mask-44)"></path>
                </g>
                <g id="Clipped">
                    <mask id="mask-46" fill="white">
                        <use xlink:href="#path-45"></use>
                    </mask>
                    <g id="lic-a"></g>
                    <polygon id="Shape" fill="#0E3170" fill-rule="nonzero" mask="url(#mask-46)" points="134.163704 69.832 135.052519 69.832 135.052519 65.3345 134.163704 65.3345"></polygon>
                </g>
                <g id="Clipped">
                    <mask id="mask-48" fill="white">
                        <use xlink:href="#path-47"></use>
                    </mask>
                    <g id="lic-a"></g>
                    <path d="M137.929158,66.176075 L137.120985,67.962825 L138.737331,67.962825 L137.929158,66.176075 Z M139.580565,69.833575 L139.172096,68.932325 L136.682714,68.932325 L136.274244,69.833575 L135.331084,69.833575 L137.359405,65.336075 L138.495405,65.336075 L140.523726,69.833575 L139.580565,69.833575 Z M138.239104,58.842875 L135.614733,58.842875 C135.632264,58.293375 135.583178,57.680875 135.639277,57.171625 L138.239104,57.171625 L138.239104,58.842875 Z M114.046511,56.371875 C113.446956,55.222125 114.414659,54.546625 115.662857,54.630625 C116.472783,54.684875 117.223104,54.992875 117.915573,55.309625 C118.62382,55.638625 119.325054,55.951875 119.744042,56.371875 L114.046511,56.371875 Z M140.630314,56.371875 L121.502388,56.371875 C120.73103,55.811875 119.789622,55.232625 118.758807,54.723375 C117.770067,54.235125 116.593746,53.745125 115.264906,53.804625 C114.05177,53.860625 112.537104,54.515125 112.759746,55.876625 C112.784289,56.053375 112.880709,56.149625 112.899993,56.371875 L111.539598,56.371875 L111.539598,57.171625 L112.970116,57.171625 L112.970116,62.537125 L114.141178,62.537125 C114.19377,60.795875 114.149943,58.951375 114.163968,57.171625 L121.337598,57.171625 L121.337598,58.396625 L119.014758,58.396625 C118.190807,58.396625 116.283449,58.132375 116.295721,58.914625 C116.30098,59.199875 116.744511,59.605875 116.954881,59.784375 C117.103894,59.917375 117.307252,60.045125 117.493079,60.186875 C117.8174,60.424875 118.229375,60.619125 118.569474,60.349625 C118.711474,60.067875 118.588758,59.523625 118.664141,59.171875 L121.337598,59.171875 L121.337598,62.537125 L122.533202,62.537125 C122.54898,60.759125 122.501647,58.914625 122.555993,57.171625 C123.774388,57.187375 125.055894,57.140125 126.235721,57.196125 C126.221696,57.675625 126.270783,58.214625 126.214684,58.657375 C125.60461,58.701125 124.955968,58.517375 124.877079,58.984625 C124.777153,59.583125 125.97977,60.333875 126.377721,60.489625 C126.681005,60.612125 127.163104,60.641875 127.313869,60.444125 C127.510215,60.192125 127.385746,59.275125 127.385746,58.842875 L127.385746,57.171625 L129.636709,57.171625 L129.636709,62.537125 L130.80777,62.537125 C130.825301,60.759125 130.774462,58.914625 130.83056,57.171625 C132.034931,57.187375 133.302412,57.140125 134.466462,57.196125 C134.448931,57.736875 134.498017,58.340625 134.441919,58.842875 C133.898462,58.820125 133.34098,58.862125 133.2954,59.243625 C133.24456,59.630375 133.696857,59.910375 133.972091,60.137875 C134.403351,60.489625 135.071277,61.068875 135.588437,60.536875 C135.646289,60.293625 135.598956,59.950625 135.614733,59.668875 C136.484264,59.681125 137.409894,59.637375 138.239104,59.689875 L138.239104,62.537125 L139.413672,62.537125 C139.429449,60.759125 139.380363,58.914625 139.434709,57.171625 L140.607523,57.171625 C140.661869,56.951125 140.616289,56.630875 140.630314,56.371875 Z M36.6354741,57.17145 L36.6354741,58.4437 C36.6354741,58.8497 36.7213753,59.3257 36.6354741,59.6897 C36.6109309,59.7912 36.4426346,59.97145 36.3549802,60.04495 C35.476684,60.7572 33.4360914,60.77645 32.9785358,59.6897 C33.8024864,59.5357 34.8034988,59.1542 34.7824617,58.23195 C34.7736963,57.78395 34.524758,57.50045 34.3143877,57.19595 C35.0436716,57.13995 35.8693753,57.1872 36.6354741,57.17145 Z M25.7330296,56.3717 C25.5016222,56.3717 25.2088568,56.42245 25.0317951,56.3717 C24.8109062,56.3087 24.5006099,55.7417 24.5146346,55.4302 C24.5374247,54.9332 25.0966593,54.5797 25.6892025,54.72495 C26.4886099,54.92095 27.4107333,55.86245 27.8437457,56.3717 L25.7330296,56.3717 Z M27.5387086,54.77045 C26.6025605,54.05295 24.868758,53.4667 23.8361901,54.4642 C23.610042,54.6812 23.3593506,55.0627 23.3190296,55.4302 C23.2716963,55.8712 23.4697951,56.1232 23.5767333,56.3717 L4.18935062,56.3717 L4.18935062,57.17145 C4.70475802,57.1872 5.28152346,57.13995 5.76011605,57.19595 C5.74258519,57.7507 5.78991852,58.3737 5.73732593,58.88995 L3.55648642,58.88995 C3.48986914,58.1812 3.67043704,57.6807 3.50915309,57.19595 C3.10243704,55.96045 0.595523457,56.2177 0.134461728,57.07695 C-0.0426,57.40245 0.0275234568,57.97645 0.272955556,58.2092 L1.4931037,58.2092 C1.43700494,58.01145 1.09515309,57.84695 1.1196963,57.54945 C1.15300494,57.1242 2.18907901,56.9982 2.36088148,57.4077 C2.45379506,57.6247 2.3836716,57.9397 2.3836716,58.1392 C2.3836716,58.3807 2.40470864,58.62045 2.36088148,58.88995 C1.74730123,58.87945 0.963671605,58.84445 0.953153086,59.3152 C0.9514,59.48495 1.1968321,59.7212 1.3511037,59.8542 C1.87527654,60.3092 2.79915309,61.19645 3.53194321,60.7502 C3.58102963,60.43695 3.5459679,60.0432 3.55648642,59.6897 L5.76011605,59.6897 L5.76011605,62.53695 L6.9539679,62.53695 C6.96974568,60.75895 6.92591852,58.91445 6.97851111,57.17145 L9.69930123,57.17145 L9.69930123,62.5142 C10.0499185,62.5702 10.5039679,62.5247 10.8949062,62.53695 C10.910684,60.75895 10.8633506,58.91445 10.9176963,57.17145 L16.2400667,57.17145 C16.185721,57.77695 16.3733012,58.52945 16.0524864,58.81995 C15.759721,59.0842 14.9305111,59.04045 14.6219679,58.88995 C14.1819432,58.67295 14.0487086,58.0657 13.6823136,57.8767 C13.3965605,58.0552 13.0915235,58.2092 12.7707086,58.3492 C13.750684,59.68795 15.0690049,61.0862 16.450437,62.13795 C16.6380173,62.28145 16.9220173,62.5527 17.1288815,62.53695 C17.4181407,62.5247 17.7424617,62.0662 17.9966593,62.0207 C17.099079,61.31195 16.0787827,60.6032 15.3968321,59.7597 C16.2295481,59.70895 16.9272765,59.58995 17.2708815,59.05445 C17.5513753,58.6152 17.3690543,57.86795 17.4602148,57.17145 C19.7322148,57.1872 22.069079,57.13995 24.3025111,57.19595 C24.320042,57.53545 24.3323136,57.71395 24.3025111,57.97295 C22.2882148,58.1392 19.3290049,57.31845 19.3342642,59.36245 C19.3360173,60.5227 20.3335235,61.42045 21.0698198,61.9962 C21.276684,62.1607 21.7622889,62.5492 21.9831778,62.53695 C22.1865358,62.52995 22.575721,62.1607 22.7334988,62.0452 C22.8036222,61.99095 22.9123136,61.94545 22.8982889,61.8807 C22.048042,61.7617 21.5922395,61.30845 21.0926099,60.7257 C20.7963383,60.38095 20.3300173,59.6862 20.5526593,59.14895 C20.6578444,58.8987 20.9856716,58.8042 21.3029802,58.7727 C22.1777704,58.69045 23.4434988,58.8357 24.3025111,58.7727 C24.3463383,60.0117 24.2884864,61.2157 24.3270543,62.53695 L25.498116,62.53695 L25.498116,57.17145 L28.1259926,57.17145 L28.1259926,62.53695 L29.2953012,62.53695 C29.311079,60.75895 29.2672519,58.91445 29.3215975,57.17145 L31.9459679,57.17145 C32.2439926,57.17145 32.6121407,57.1102 32.8382889,57.17145 C33.1135235,57.25195 33.571079,57.8942 33.5640667,58.2092 C33.5465358,59.02295 32.3176222,59.06845 31.5708074,58.8427 C31.5129556,61.26645 34.787721,61.73895 36.6354741,60.8902 L36.6354741,62.53695 C37.0264123,62.5247 37.4769556,62.5702 37.831079,62.5142 L37.831079,57.17145 L39.0038938,57.17145 L39.0038938,56.3717 L29.0621407,56.3717 C28.6326346,55.8957 28.1452765,55.23945 27.5387086,54.77045 Z M55.0616395,56.3717 C54.8319852,56.3717 54.5357136,56.42245 54.3586519,56.3717 C54.1517877,56.3122 53.8449975,55.7522 53.8432444,55.4792 C53.8414914,54.9507 54.4077383,54.57445 55.0160593,54.72495 C55.8768247,54.9367 56.7463556,55.89045 57.1706025,56.3717 L55.0616395,56.3717 Z M56.8673185,54.77045 C56.2835407,54.31895 55.5314667,53.86045 54.5690222,53.92345 C53.6363802,53.98295 52.719516,54.5587 52.6476395,55.45295 C52.6125778,55.8677 52.7808741,56.11095 52.9053432,56.3717 C50.405442,56.3892 47.8424296,56.33845 45.3793432,56.3962 C45.4459605,56.6202 45.3723309,57.0402 45.4021333,57.17145 L53.6556642,57.17145 L53.6556642,58.25645 L49.5288988,58.25645 C49.5814914,58.4052 49.7655654,58.46995 49.9058123,58.5837 C50.2879852,58.8952 50.7332691,59.37295 50.9348741,59.8087 C51.3310716,60.6697 50.689442,61.22095 49.7655654,60.98645 C48.9626519,60.7817 48.3753679,60.1167 47.9581333,59.4797 C47.7249728,59.12445 47.4742815,58.6292 47.3953926,58.3037 C47.3708494,58.19695 47.363837,57.9817 47.3726025,57.8767 C46.9904296,58.0202 46.6836395,58.23895 46.3172444,58.39645 C46.6871457,59.5322 47.3515654,60.5927 48.2877136,61.22095 C49.2186025,61.8457 51.0453185,62.1117 51.8745284,61.19645 C52.049837,61.0022 52.2058617,60.65395 52.2023556,60.3267 C52.1935901,59.77545 51.8271951,59.43945 51.7097383,59.03345 C52.3496148,59.04745 53.0526025,58.99845 53.6556642,59.05445 L53.6556642,62.53695 L54.8267259,62.53695 C54.8442568,60.75895 54.7986765,58.91445 54.8512691,57.17145 L57.4528494,57.17145 L57.4528494,62.53695 L58.6256642,62.53695 C58.641442,60.75895 58.5941086,58.91445 58.6484543,57.17145 L65.0261827,57.17145 L65.0261827,59.90495 C64.4424049,60.5227 62.4807012,60.83245 62.1423556,59.8087 C62.0774914,59.6127 62.0634667,59.3642 62.1178123,59.17345 C62.3948,58.23195 64.0269235,58.5767 64.7421827,58.8427 C64.6194667,58.5452 64.5493432,58.19345 64.4424049,57.8767 C63.0153926,57.5092 61.4551457,57.92395 60.9712938,58.9617 C60.8468247,59.22595 60.8082568,59.75795 60.9239605,60.04495 C61.3972938,61.2472 63.8919358,61.64795 65.0261827,60.8902 L65.0261827,62.53695 L66.1989975,62.53695 L66.1989975,57.17145 L73.3252938,57.17145 C73.307763,57.57395 73.3568494,58.03595 73.3007506,58.39645 L69.7630222,58.39645 C69.3703309,58.39645 68.8742074,58.33345 68.6129975,58.4437 C67.8346272,58.7727 68.6445531,59.54445 69.0354914,59.8542 C69.3615654,60.11845 69.7279605,60.4912 70.1364296,60.4912 C70.7973432,60.4947 70.5957383,59.84895 70.6308,59.17345 L73.3252938,59.17345 L73.3252938,62.53695 L74.5226519,62.53695 C74.5366765,60.75895 74.4893432,58.91445 74.5436889,57.17145 L75.8339605,57.17145 L75.8339605,56.3717 L58.3907506,56.3717 C57.9454667,55.8712 57.4808988,55.24645 56.8673185,54.77045 Z M99.2055827,58.842875 L96.5566691,58.842875 C96.5742,58.293375 96.5286198,57.680875 96.5812123,57.171625 L99.2055827,57.171625 L99.2055827,58.842875 Z M88.6099284,56.371875 C88.378521,56.371875 88.0840025,56.422625 87.9069407,56.371875 C87.6913111,56.308875 87.3722494,55.745375 87.3915333,55.430375 C87.4178296,54.922875 87.9718049,54.578125 88.5643481,54.723375 C89.3900519,54.924625 90.2595827,55.852125 90.7206444,56.371875 L88.6099284,56.371875 Z M84.3183728,59.243625 C85.0984963,59.579625 85.7997309,59.987375 86.5710889,60.326875 C85.7313605,60.878125 83.8310148,60.445875 84.3183728,59.243625 Z M105.490398,56.371875 L91.9372864,56.371875 C91.5060272,55.899375 91.0221753,55.234375 90.4156074,54.770625 C89.8037802,54.299875 89.067484,53.860625 88.1173111,53.921875 C87.526521,53.962125 86.9725457,54.173875 86.6394593,54.536125 C86.4553852,54.740875 86.2344963,55.092625 86.1959284,55.430375 C86.1450889,55.876625 86.3396815,56.130375 86.4553852,56.371875 L82.0446198,56.371875 L82.0446198,57.171625 L87.2267432,57.171625 C87.2092123,58.043125 87.2582988,58.975875 87.2022,59.808875 C86.4676568,59.448375 85.6945457,59.124625 85.0020765,58.729125 C85.3947679,58.622375 86.0030889,58.494625 86.4290889,58.657375 C86.5342741,58.695875 86.6043975,58.771125 86.6867926,58.842875 C86.7323728,58.881375 86.8585951,59.040625 86.8761259,58.961875 C86.8060025,58.611875 86.7306198,58.258375 86.6394593,57.924125 C85.4052864,57.586375 84.0185951,57.915375 83.4050148,58.657375 C83.0263481,59.110625 82.9422,59.926125 83.3576815,60.444125 C84.0554099,61.312125 86.1591136,61.653375 87.2267432,60.986625 L87.2267432,62.537125 C87.6176815,62.524875 88.0682247,62.570375 88.4223481,62.514375 L88.4223481,57.171625 C89.2725951,57.187375 90.1877062,57.140125 91.0011383,57.196125 L91.0011383,62.514375 C91.3464963,62.570375 91.7917802,62.524875 92.1739531,62.537125 C92.191484,60.759125 92.1441506,58.914625 92.1984963,57.171625 C93.2573605,57.187375 94.3845951,57.140125 95.4083975,57.196125 C95.3943728,57.736875 95.4417062,58.340625 95.3838543,58.842875 C94.8929901,58.842875 94.4336815,58.825375 94.282916,59.124625 C94.0848173,59.525375 94.607237,59.878875 94.9175333,60.137875 C95.2383481,60.410875 95.5679284,60.699625 95.8536815,60.750375 C96.6443235,60.892125 96.593484,60.377625 96.5566691,59.668875 C97.4332123,59.681125 98.3711136,59.637375 99.2055827,59.689875 L99.2055827,62.537125 L100.355607,62.537125 L100.355607,57.171625 L102.724027,57.171625 L102.724027,62.537125 L103.919632,62.537125 C103.93541,60.759125 103.886323,58.914625 103.940669,57.171625 L105.464101,57.171625 C105.5202,56.951125 105.47462,56.630875 105.490398,56.371875 Z" id="Shape" fill="#0E3170" fill-rule="nonzero" mask="url(#mask-48)"></path>
                </g>
                <g id="Clipped">
                    <mask id="mask-50" fill="white">
                        <use xlink:href="#path-49"></use>
                    </mask>
                    <g id="lic-a"></g>
                    <path d="M24.8054716,38.5231 C25.0228543,38.42685 25.0228543,38.11885 24.8405333,37.99985 C24.7441136,37.94385 24.6529531,37.94385 24.5319901,37.94385 C24.4706321,37.99985 24.4092741,38.0646 24.3794716,38.1521 C24.347916,38.30435 24.4092741,38.4671 24.5319901,38.5231 C24.6196444,38.5896 24.7143111,38.5896 24.8054716,38.5231" id="Shape" fill="#FFFFFF" fill-rule="nonzero" mask="url(#mask-50)"></path>
                </g>
                <g id="Clipped">
                    <mask id="mask-52" fill="white">
                        <use xlink:href="#path-51"></use>
                    </mask>
                    <g id="lic-a"></g>
                    <path d="M41.6242321,27.881175 L41.6242321,30.175425 C41.5874173,31.619175 41.5593679,33.094425 41.5593679,34.608175 C41.5243062,34.793675 41.5243062,34.947675 41.5243062,35.133175 C41.5243062,35.505925 41.4980099,35.864675 41.4980099,36.209425 L41.4980099,37.693425 C41.4366519,37.971675 41.3454914,38.248175 41.2210222,38.496675 C40.9142321,39.112675 40.5127753,39.719925 40.0762568,40.304425 C39.9552938,40.467175 39.8343309,40.614175 39.7098617,40.773425 C39.1891951,41.391175 38.6036642,42.005425 37.991837,42.561925 C37.097763,43.335425 36.1703802,44.009175 35.253516,44.567425 C34.725837,44.903425 34.1736148,45.157175 33.6143802,45.426675 C33.5530222,45.456425 33.4969235,45.515925 33.4005037,45.557925 C31.985763,46.110925 30.5236889,46.558925 29.0212938,46.788175 C27.4873432,47.022675 26.0603309,46.893175 24.5316395,46.784675 C24.3142568,46.754925 24.0968741,46.684925 23.8812444,46.663925 C23.4201827,46.564175 22.9293185,46.446925 22.4665037,46.292925 C22.1860099,46.224675 21.9090222,46.096925 21.6635901,46.016425 C21.3848494,45.921925 21.1113679,45.795925 20.8641827,45.668175 C20.8326272,45.636675 20.7730222,45.636675 20.7362074,45.615675 C20.1769728,45.235925 19.5072938,44.980425 18.9340346,44.616425 C18.3362321,44.231425 17.7682321,43.811425 17.2230222,43.361675 C16.1887012,42.511175 15.2595654,41.536425 14.4478864,40.472425 C13.6414667,39.411925 12.9016642,38.223675 12.5177383,36.944425 C12.3967753,36.583925 12.430084,36.114925 12.430084,35.689675 C12.3967753,34.947675 12.3967753,34.112925 12.3967753,33.313175 C12.3967753,29.834175 12.4704049,26.353425 12.4949481,22.872675 C12.5002074,21.850675 12.5054667,20.828675 12.5054667,19.804925 C12.5072198,18.963175 12.5475407,18.123175 12.5685778,17.279675 C12.5878617,16.521925 12.5159852,15.722175 12.6772691,14.976675 C12.7649235,14.451675 13.0138617,13.956425 13.1926765,13.492675 C13.566084,12.727925 14.0674667,12.041925 14.5530716,11.368175 C14.9229728,10.843175 15.3857877,10.344425 15.8188,9.915675 L15.8450963,9.882425 C16.8355901,8.898925 17.9102321,8.004675 19.0479852,7.294175 C19.4774914,7.054425 19.9069975,6.832175 20.3400099,6.588925 C20.4977877,6.494425 20.6818617,6.436675 20.8641827,6.336925 C22.5085778,5.610675 24.2669235,5.108425 26.0655901,4.994675 C28.0746272,4.866925 30.0678864,5.108425 31.9769975,5.741925 C34.7556395,6.665925 37.443121,8.289925 39.3084049,10.561425 C39.8097877,11.170425 40.2726025,11.851175 40.6425037,12.549425 C40.9685778,13.165425 41.2893926,13.797175 41.4769728,14.469175 C41.6540346,15.100925 41.6575407,15.771175 41.682084,16.422175 C41.7136395,17.223675 41.7136395,18.114425 41.7136395,18.949175 C41.7136395,21.936425 41.7136395,24.962175 41.6242321,27.881175 M43.2195407,21.570675 L43.2195407,21.486675 C43.2125284,20.326425 43.2248,19.169675 43.063516,18.019925 C42.7952938,16.082675 42.1396395,14.304675 41.2543309,12.656175 C40.8826765,11.985925 40.5127753,11.368175 40.0762568,10.778425 C39.9552938,10.626175 39.8343309,10.468675 39.7098617,10.316425 C39.1891951,9.637425 38.6036642,9.024925 37.991837,8.466675 C36.6296889,7.260925 35.090479,6.310675 33.4005037,5.633425 C32.2329481,5.138175 30.9970222,4.802175 29.7014914,4.578175 C29.429763,4.523925 29.1808247,4.488925 28.9353926,4.452175 C28.3130469,4.364675 27.6731704,4.333175 27.0192691,4.303425 C25.3345531,4.231675 23.6971704,4.488925 22.087837,4.977175 C20.7993185,5.369175 19.4967753,6.046425 18.3695407,6.772675 C17.4772198,7.353675 16.6129481,8.069425 15.8188,8.872675 C14.4040593,10.290175 13.1926765,11.949175 12.3967753,13.679925 C11.9970716,14.574175 11.6289235,15.492925 11.4413432,16.499175 C11.1643556,18.019925 11.1643556,19.685925 11.1345531,21.323925 C11.0749481,22.394925 11.0398864,23.457175 11.0398864,24.559675 C11.0398864,25.634175 10.9802815,26.750675 10.9802815,27.854925 L10.9802815,30.906925 L10.9802815,33.379675 C11.0398864,33.708675 11.0749481,34.025425 11.1345531,34.354425 C11.4413432,35.841925 11.965516,37.224425 12.6439605,38.522925 C13.466158,40.187175 14.5530716,41.667675 15.8188,42.959175 C18.6588,45.818675 22.7627753,47.579175 26.8194173,47.556425 C27.9431457,47.549425 29.1545284,47.460175 30.2589728,47.218675 C33.3496642,46.525675 36.2299852,44.997925 38.4914667,42.787675 C39.9693185,41.342175 41.1947259,39.665675 42.0204296,37.772175 C42.3254667,37.068675 42.5393432,36.335425 42.7619852,35.567175 C43.2353185,33.937925 43.1459111,32.088175 43.1914914,30.408175 C43.2388247,28.509425 43.2475901,26.610675 43.2388247,24.710175 C43.2353185,23.665425 43.2283062,22.617175 43.2195407,21.570675" id="Shape" fill="#FFFFFF" fill-rule="nonzero" mask="url(#mask-52)"></path>
                </g>
                <g id="Clipped">
                    <mask id="mask-54" fill="white">
                        <use xlink:href="#path-53"></use>
                    </mask>
                    <g id="lic-a"></g>
                    <path d="M31.8623457,17.16925 C31.9166914,17.41075 32.0166173,17.65225 32.1060247,17.899 L32.1060247,18.75825 C32.1060247,19.25 32.1340741,19.78375 32.2322469,20.2475 C32.2883457,20.5485 32.354963,20.86 32.4443704,21.1435 C32.4741728,21.224 32.5688395,21.3815 32.5688395,21.476 C32.5337778,21.63175 32.3812593,21.749 32.2883457,21.87325 C32.1989383,22.05875 32.070963,22.274 32.0166173,22.48925 C31.9166914,22.6765 31.8623457,22.92325 31.8623457,23.142 C31.8623457,23.29775 31.9166914,23.513 31.8325432,23.63725 C31.7045679,23.82625 31.585358,24.00475 31.4556296,24.19025 C31.1803951,24.5245 30.9384691,24.8675 30.6597284,25.235 C30.3546914,25.70575 30.0110864,26.16075 29.7025432,26.628 C29.3992593,26.99375 29.1468148,27.405 28.8698272,27.797 C28.5332346,28.28875 28.196642,28.8155 27.9459506,29.365 C27.8267407,29.6485 27.7338272,29.9845 27.6724691,30.32225 C27.6426667,30.53575 27.609358,30.78775 27.609358,31.03625 C27.6724691,32.081 28.3140988,32.90875 29.2414815,33.31475 C29.3010864,33.7085 29.3992593,34.11275 29.4921728,34.48725 C29.4921728,34.54325 29.5184691,34.573 29.5798272,34.608 C29.6113827,34.643 29.6411852,34.643 29.6692346,34.643 L29.7025432,34.643 C30.9384691,34.643 32.1656296,34.643 33.3998025,34.66925 L33.4611605,34.66925 C33.8591111,34.66925 34.2325185,34.643 34.6585185,34.643 C34.9407654,34.643 35.2177531,34.66925 35.4614321,34.573 C35.4614321,34.48725 35.277358,34.2685 35.2177531,34.174 C34.8478519,33.53525 34.4463951,32.84925 34.08,32.2035 C34.0449383,32.144 34.0151358,32.05475 34.0449383,31.98825 C34.1062963,31.7135 34.4130864,31.374 34.5691111,31.129 C35.0319259,30.4185 35.4947407,29.708 35.9540494,29.00625 C36.6026914,27.9825 37.2513333,26.93425 37.8368642,25.8825 C37.894716,25.7915 37.9315309,25.70575 37.9911358,25.634 C38.3575309,24.927 38.7572346,24.22175 38.9395556,23.422 C39.4076296,21.78225 39.1902469,19.845 38.8168395,18.24025 C38.6345185,17.4685 38.3277284,16.758 37.9911358,16.05625 C37.6790864,15.407 37.3424938,14.76475 37.1549136,14.077 C37.0321975,13.67975 36.9112346,13.24575 36.879679,12.81175 C36.879679,12.6245 36.9112346,12.453 36.9112346,12.29025 C36.939284,12.20275 36.9725926,12.075 36.939284,12.0155 C36.879679,11.7985 36.2976543,12.04175 36.169679,12.11 C35.3439753,12.6245 35.8628889,13.89675 36.108321,14.60725 C36.3818025,15.46825 36.879679,16.26625 37.2513333,17.094 C37.2828889,17.2515 37.3109383,17.41075 37.3687901,17.52975 C37.589679,18.1755 37.7071358,18.7985 37.8368642,19.467 C37.9315309,19.94125 38.0507407,20.587 37.8666667,21.04375 C37.8000494,21.04375 37.7457037,20.979 37.7457037,20.9195 C37.6177284,20.615 37.6177284,20.188 37.589679,19.87475 C37.5265679,19.446 37.4283951,19.03825 37.3424938,18.63925 C37.1549136,17.962 36.939284,17.28825 36.6640494,16.6355 C36.4817284,16.17875 36.1977284,15.74825 35.9540494,15.3195 C35.7401728,14.88375 35.5894074,14.4515 35.4614321,13.993 C35.3106667,13.37 35.2177531,12.6035 35.2545679,11.928 C35.277358,11.7355 35.277358,11.55875 35.3106667,11.36975 L35.277358,11.36975 C35.277358,11.312 35.1861975,11.3435 35.154642,11.3435 C35.0073827,11.40125 34.8145432,11.4695 34.6585185,11.5255 C34.4130864,11.641 34.1729136,11.89475 34.08,12.166 C33.774963,12.90625 34.2921235,14.1155 34.5340494,14.76475 C34.7829877,15.3195 35.0319259,15.869 35.3106667,16.422 C35.5280494,16.88225 35.7699753,17.3145 35.9540494,17.78 C36.2625926,18.60775 36.4817284,19.467 36.6026914,20.4295 C36.6956049,20.94925 36.7254074,21.65975 36.5115309,22.12175 C36.4519259,22.12175 36.3818025,22.05875 36.3818025,21.9975 C36.3257037,21.7245 36.3625185,21.3815 36.3625185,21.10325 C36.3625185,20.86 36.3257037,20.643 36.2976543,20.4295 C36.2625926,20.188 36.2275309,19.94125 36.1977284,19.68575 C36.0785185,19.1625 35.9540494,18.63925 35.7401728,18.11425 C35.6192099,17.74325 35.398321,17.41075 35.2177531,17.03625 C35.0319259,16.6005 34.8145432,16.17875 34.5971605,15.74825 C34.2570617,15.00275 34.0449383,14.23275 33.774963,13.4925 C33.613679,13.02525 33.5540741,12.537 33.4979753,12.075 C33.4611605,11.89475 33.4611605,11.711 33.4331111,11.55875 C33.4331111,11.5255 33.4331111,11.5255 33.3998025,11.5255 C33.37,11.48875 33.2700741,11.48875 33.206963,11.48875 C32.7511605,11.48875 32.354963,11.85625 32.2322469,12.29025 C32.1989383,12.453 32.1989383,12.6035 32.1989383,12.77675 C32.1989383,12.85025 32.1989383,13.0025 32.2585432,13.02525 L32.6319506,13.02525 L32.6319506,13.0585 L32.6582469,13.0585 C32.6582469,13.3385 32.7511605,13.55375 32.8090123,13.8355 C32.9352346,14.392 33.0895062,14.9765 33.206963,15.5295 C33.2700741,15.74825 33.3349383,15.98975 33.3998025,16.20675 C33.5172593,16.54625 33.6452346,16.88225 33.774963,17.19725 C33.9222222,17.507 34.0449383,17.8115 34.1992099,18.11425 C34.4463951,18.7985 34.6304691,19.50375 34.7514321,20.21075 C34.8478519,20.643 34.9407654,21.0735 35.0073827,21.5705 C35.0319259,22.05875 35.1265926,22.554 34.8846667,22.98975 C34.8478519,22.98975 34.8145432,22.96 34.7829877,22.92325 C34.6935802,22.778 34.7514321,22.48925 34.7514321,22.302 C34.6585185,21.78225 34.5691111,21.224 34.5095062,20.706 C34.4130864,20.2475 34.3569877,19.74875 34.1992099,19.27975 C33.9222222,18.63925 33.6715309,17.99 33.3998025,17.3425 C33.1491111,16.6355 32.9001728,15.92675 32.7178519,15.16375 C32.6319506,14.78575 32.5337778,14.3535 32.4741728,13.95625 C32.4741728,13.8355 32.4741728,13.55375 32.4093086,13.461 C32.354963,13.405 32.2322469,13.405 32.1060247,13.43475 C31.5467901,13.58 31.3662222,14.2625 31.3662222,14.84875 C31.3662222,15.071 31.4293333,15.3195 31.4556296,15.5295 C31.4889383,16.0825 31.6782716,16.6355 31.8623457,17.16925 M26.4695012,31.7401 C26.9551062,30.17385 25.976884,28.78435 25.2370815,27.60835 C24.9881432,27.27235 24.7777728,26.9346 24.5323407,26.59685 C24.314958,26.28885 24.0958222,26.01235 23.8801926,25.7061 C23.7609827,25.50835 23.604958,25.32635 23.482242,25.1146 C23.1140938,24.6526 22.7739951,24.1521 22.4005877,23.6971 C22.2813778,23.51335 22.3707852,23.17385 22.3427358,22.9586 C22.3129333,22.8291 22.2813778,22.7066 22.2515753,22.5876 C22.1586617,22.3006 22.0376988,22.0591 21.8851802,21.8456 C21.8220691,21.7231 21.7274025,21.6321 21.6958469,21.5061 C21.6642914,21.5061 21.6958469,21.35035 21.6958469,21.3241 C21.9079704,20.76585 22.0078963,20.1866 22.0675012,19.5601 C22.0675012,19.46735 22.0973037,19.3781 22.0973037,19.2801 C22.0973037,19.0386 22.0973037,18.7971 22.1288593,18.5451 C22.1288593,18.34035 22.0973037,18.0866 22.1288593,17.86785 C22.2515753,17.50735 22.3707852,17.1696 22.4952543,16.7881 C22.7424395,15.8956 23.3928346,13.46135 21.8220691,13.4036 L21.8220691,13.4351 C21.7887605,13.4351 21.7887605,13.61535 21.758958,13.6486 C21.7274025,13.9916 21.6958469,14.32935 21.6642914,14.64085 C21.6046864,14.97685 21.5135259,15.31985 21.4188593,15.6226 C21.2347852,16.2071 21.0454519,16.7566 20.864884,17.3411 C20.805279,17.43385 20.7737235,17.5301 20.7351556,17.6246 C20.4616741,18.3666 20.0917728,19.06835 19.9076988,19.8751 C19.7832296,20.3686 19.7516741,20.86035 19.6622667,21.35035 C19.6009086,21.5691 19.5693531,21.81235 19.5413037,22.0311 C19.5097481,22.3006 19.5693531,22.7381 19.444884,22.9901 C18.9522667,22.9901 19.3554765,20.82885 19.4133284,20.5226 C19.6009086,19.74735 19.7516741,18.97735 20.033921,18.25985 C20.154884,17.8416 20.3722667,17.46885 20.5247852,17.07335 C20.6492543,16.7566 20.7351556,16.42235 20.864884,16.10735 C20.8929333,15.9901 20.926242,15.86935 20.9911062,15.71185 C21.0454519,15.4931 21.110316,15.2516 21.1681679,15.0031 C21.2610815,14.6076 21.3557481,14.20335 21.453921,13.80085 C21.5135259,13.58035 21.5135259,13.2461 21.6379951,13.05885 C21.6379951,13.05885 21.6379951,13.0256 21.6642914,13.0256 C21.7274025,13.0256 21.9710815,13.05885 22.0078963,13.05885 L22.0078963,13.0256 C22.0675012,13.0256 22.0376988,12.8121 22.0376988,12.7771 C22.0376988,12.2906 21.9079704,11.94935 21.6642914,11.7341 C21.5433284,11.64135 21.4188593,11.5906 21.2347852,11.52585 C21.1418716,11.4891 20.9542914,11.46985 20.864884,11.4891 C20.864884,11.4891 20.8315753,11.4891 20.8315753,11.52585 C20.7737235,11.5591 20.7737235,11.61685 20.7737235,11.6781 C20.7737235,11.8566 20.7737235,12.0421 20.7351556,12.2276 C20.6492543,12.93985 20.4055753,13.61535 20.216242,14.30485 C20.154884,14.4816 20.0672296,14.6706 20.0006123,14.8841 C19.7832296,15.43885 19.5413037,16.0216 19.264316,16.57285 C18.9820691,17.09435 18.7120938,17.6246 18.4947111,18.17585 C17.9968346,19.2801 17.8758716,20.7396 17.8758716,22.1221 L17.844316,22.1221 C17.660242,22.1221 17.660242,21.9121 17.6304395,21.7826 C17.5077235,20.9181 17.660242,19.8751 17.8758716,19.0981 C18.0283901,18.6396 18.1511062,18.14435 18.3369333,17.7086 C18.5560691,17.19585 18.8295506,16.66735 19.0784889,16.1441 C19.3221679,15.6226 19.5693531,15.07135 19.7832296,14.51835 C20.0006123,14.0546 20.154884,13.52785 20.2477975,12.9661 C20.2793531,12.8506 20.3144148,12.7281 20.2793531,12.6021 C20.216242,11.8951 19.6622667,11.4261 18.9820691,11.34385 C18.9522667,11.46985 18.9820691,11.5906 18.9820691,11.71135 L18.9820691,12.2591 C18.9820691,12.8506 18.9522667,13.3371 18.8295506,13.83585 C18.6805383,14.3521 18.5262667,14.8246 18.308884,15.31985 C18.1511062,15.5596 17.9968346,15.8046 17.8758716,16.08285 C17.598884,16.57285 17.3552049,17.1276 17.1693778,17.7086 C16.9853037,18.34035 16.8362914,18.97735 16.7030568,19.65985 C16.6750074,19.9661 16.6136494,20.2706 16.5873531,20.61535 C16.5557975,20.7396 16.5557975,20.9181 16.4944395,21.0441 C16.0912296,21.0441 16.4576247,19.3501 16.4944395,19.0981 C16.5189827,18.82335 16.6136494,18.5171 16.6750074,18.2406 C16.7977235,17.8416 16.8923901,17.4111 17.0484148,17.0366 C17.4481185,16.17735 17.8758716,15.34435 18.2107111,14.4816 C18.308884,14.2331 18.3982914,13.9566 18.4649086,13.6801 C18.5262667,13.4351 18.5876247,13.14985 18.5262667,12.87685 C18.4947111,12.45335 18.1826617,12.0421 17.7514025,11.94935 C17.598884,11.94935 17.3885136,11.92835 17.2622914,11.9861 C17.2289827,11.9861 17.2938469,12.07535 17.2938469,12.11035 C17.3885136,12.5041 17.3552049,12.9661 17.2938469,13.37035 C17.2622914,13.71335 17.1080198,14.02485 17.0168593,14.32935 C16.7731802,15.1011 16.3647111,15.8361 16.0333778,16.60085 C15.936958,16.7566 15.8773531,16.91585 15.8195012,17.09435 C15.4145383,18.0866 15.1375506,19.16285 15.0744395,20.31435 L15.0744395,21.68985 C15.0744395,22.33385 15.1656,22.9901 15.3216247,23.57285 C15.4496,23.97535 15.6301679,24.3761 15.8195012,24.7751 C16.0018222,25.1146 16.180637,25.44885 16.3647111,25.79185 C16.7977235,26.5671 17.2289827,27.3686 17.7251062,28.0791 C18.3369333,29.0346 18.918958,30.0146 19.5693531,30.97185 C19.7218716,31.1871 19.8814025,31.4286 20.033921,31.6456 C20.0917728,31.7401 20.1846864,31.8346 20.1846864,31.95535 C20.216242,32.0201 20.216242,32.1076 20.1846864,32.20385 C19.8182914,32.81635 19.444884,33.4306 19.0784889,34.07635 C18.9820691,34.23035 18.8295506,34.42285 18.8032543,34.64335 L19.3221679,34.64335 C19.8480938,34.64335 20.3407111,34.6696 20.864884,34.6696 L21.6642914,34.6696 L23.2946617,34.6696 C23.482242,34.6696 23.6996247,34.64335 23.8801926,34.64335 L24.1589333,34.64335 C24.2816494,34.64335 24.4376741,34.6696 24.5323407,34.64335 L24.618242,34.64335 C24.8671802,34.5121 24.8391309,33.5916 25.0232049,33.3431 C25.1739704,33.25385 25.3299951,33.15935 25.4825136,33.0316 C25.9400691,32.6921 26.3099704,32.2931 26.4695012,31.7401" id="Shape" fill="#FFFFFF" fill-rule="nonzero" mask="url(#mask-54)"></path>
                </g>
                <g id="Clipped">
                    <mask id="mask-56" fill="white">
                        <use xlink:href="#path-55"></use>
                    </mask>
                    <g id="lic-a"></g>
                    <path d="M22.9617506,20.400975 C23.0248617,20.154225 23.4210593,19.940725 23.8803679,19.809475 C24.0959975,19.748225 24.3133802,19.686975 24.532516,19.658975 C24.8954049,19.590725 25.2074543,19.534725 25.3617259,19.503225 C25.6036519,19.468225 25.9174543,19.503225 26.1295778,19.408725 C26.4118247,19.534725 26.8413309,20.400975 26.8413309,20.738725 C26.8413309,20.861225 26.8080222,20.948725 26.7466642,21.043225 C26.6257012,21.193725 26.4398741,21.323225 26.2856025,21.382725 C26.1979481,21.382725 26.1295778,21.414225 26.033158,21.445725 L25.850837,21.445725 C25.6036519,21.445725 25.0847383,21.414225 24.532516,21.295225 C24.3133802,21.258475 24.0959975,21.193725 23.8803679,21.142975 C23.3298988,20.978475 22.9003926,20.738725 22.9617506,20.400975 M27.3619975,19.408725 C27.6985901,19.445475 28.7802444,19.503225 29.7023679,19.658975 C30.5666395,19.846225 31.3344914,20.085975 31.245084,20.491975 C31.1556765,20.861225 30.2300469,21.102725 29.8846889,21.193725 C29.8215778,21.225225 29.765479,21.225225 29.7023679,21.258475 C29.642763,21.258475 29.6112074,21.258475 29.5796519,21.295225 C29.4288864,21.295225 29.2728617,21.323225 29.1817012,21.382725 C28.5663679,21.382725 27.2673309,21.382725 27.1078,20.707225 C26.9938494,20.246975 27.2357753,19.783225 27.3619975,19.408725 M22.5883432,20.154225 C22.2815531,20.644225 22.7128123,21.660975 22.9617506,22.089725 C23.2036765,22.488725 23.5104667,22.898225 23.8803679,23.265725 C24.0959975,23.456475 24.3133802,23.638475 24.532516,23.825725 C25.3003679,24.375225 26.1611333,24.774225 27.0183926,24.837225 C27.3076519,24.837225 27.5443185,24.803975 27.8265654,24.746225 C28.5015037,24.588725 29.1203432,24.310475 29.7023679,23.911475 C30.5981951,23.265725 31.3046889,22.301475 31.6447877,21.193725 C31.7359481,20.918975 31.8621704,20.400975 31.6780963,20.122725 C31.5466148,19.940725 31.3046889,19.846225 31.1188617,19.748225 C30.6893556,19.503225 30.1967383,19.408725 29.7023679,19.312475 L29.5796519,19.312475 C28.9082198,19.191725 28.1596519,19.067475 27.4216025,19.067475 C27.4847136,18.915225 27.5443185,18.733225 27.6091827,18.544225 C27.7336519,18.145225 27.8511086,17.742725 27.9177259,17.289475 C28.0702444,15.868475 27.4584173,14.785225 27.0183926,13.614475 L27.0183926,13.581225 C26.9938494,13.435975 26.9324914,13.304725 26.8956765,13.148975 C26.8413309,13.024725 26.8080222,12.688725 26.7168617,12.602975 C26.7168617,12.688725 26.6888123,12.777975 26.6888123,12.875975 C26.5906395,13.217225 26.5257753,13.553225 26.4398741,13.896225 C26.3101457,14.391475 26.0962691,14.848225 25.9402444,15.320725 C25.6036519,16.178225 25.4476272,17.434725 25.8227877,18.367475 C25.9174543,18.577475 25.9770593,18.850475 26.1611333,19.039475 C26.1611333,19.161975 25.9174543,19.130475 25.850837,19.161975 C25.6965654,19.161975 25.5124914,19.130475 25.4213309,19.191725 C25.3617259,19.191725 25.3301704,19.191725 25.2653062,19.221475 C25.2074543,19.221475 25.139084,19.221475 25.0847383,19.251225 C24.8954049,19.251225 24.714837,19.251225 24.5903679,19.312475 L24.532516,19.312475 C24.4098,19.312475 24.2818247,19.349225 24.1941704,19.408725 C24.0959975,19.408725 24.004837,19.408725 23.8803679,19.445475 C23.6998,19.503225 23.4824173,19.560975 23.3298988,19.625725 C23.0809605,19.720225 22.7128123,19.874225 22.5883432,20.154225 M37.9913111,37.405375 C37.8002247,37.447375 37.4916815,36.859375 37.5547926,36.729875 C37.5898543,36.607375 37.8002247,36.484875 37.8948914,36.462125 L37.8948914,36.423625 C37.9317062,36.423625 37.9597556,36.462125 37.9913111,36.462125 C38.0772123,36.512875 38.1473358,36.640625 38.2104469,36.729875 C38.2647926,36.824375 38.4173111,36.943375 38.4173111,37.069375 C38.4173111,37.223375 38.1087679,37.382625 37.9913111,37.405375 M34.3203481,39.566625 C34.257237,39.780125 34.0451136,39.843125 33.8925951,39.934125 C33.6717062,39.934125 33.5174346,39.878125 33.3999778,39.697875 C33.4613358,39.664625 33.4981506,39.566625 33.5174346,39.538625 C33.8925951,39.080125 33.587558,38.983875 33.5174346,38.551625 C33.6454099,38.497375 33.7330642,38.465875 33.8592864,38.395875 C33.9223975,38.427375 33.9820025,38.427375 34.013558,38.497375 C34.0801753,38.590125 34.1064716,38.679375 34.1730889,38.775625 C34.257237,39.013625 34.4465704,39.291875 34.3203481,39.566625 M39.8057556,38.065125 C39.8057556,38.000375 39.7759531,37.944375 39.7093358,37.874375 C39.6497309,37.772875 39.5603235,37.694125 39.4902,37.601375 C39.1904222,37.106125 38.8783728,36.640625 38.5733358,36.148875 C38.4839284,35.959875 38.8503235,35.902125 38.7241012,35.655375 C38.6627432,35.566125 38.5733358,35.441875 38.4506198,35.412125 C38.2998543,35.534625 38.1473358,35.625625 37.9913111,35.739375 C36.8798543,36.484875 35.7403481,37.162125 34.5096815,37.631125 C34.1362741,37.751875 33.7751383,37.874375 33.3999778,38.031875 C33.3351136,38.031875 33.3053111,38.065125 33.2439531,38.100125 C32.9950148,38.152625 32.7513358,38.210375 32.5339531,38.304875 C32.409484,38.339875 32.288521,38.339875 32.1991136,38.395875 C32.0711383,38.395875 31.9554346,38.427375 31.8923235,38.497375 C31.7643481,38.497375 31.6451383,38.523625 31.5855333,38.551625 C31.4295086,38.551625 31.2699778,38.590125 31.1805704,38.644375 C31.0578543,38.644375 30.9035827,38.679375 30.7843728,38.707375 C30.6897062,38.707375 30.5985457,38.740625 30.5091383,38.775625 C30.4477802,38.775625 30.3776568,38.803625 30.321558,38.803625 C30.2286444,38.803625 30.098916,38.803625 30.0410642,38.864875 C29.9499037,38.864875 29.8850395,38.864875 29.8219284,38.892875 L29.7009654,38.892875 C29.611558,38.892875 29.5186444,38.892875 29.429237,38.927875 C29.3345704,38.927875 29.2416568,38.927875 29.1469901,38.954125 C29.0277802,38.954125 28.8700025,38.954125 28.7805951,38.983875 C28.7157309,38.983875 28.6561259,38.983875 28.5667185,39.013625 C28.4387432,39.013625 28.2231136,38.983875 28.1021506,39.046875 L27.0187432,39.046875 L26.7154593,39.046875 C26.5015827,39.046875 26.2210889,38.954125 26.0335086,39.046875 C25.9405951,39.046875 25.9405951,39.388125 25.9756568,39.444125 C26.0966198,39.444125 26.8083728,39.538625 27.0187432,39.566625 C27.0818543,39.566625 27.0818543,39.603375 27.1081506,39.603375 C27.2361259,39.697875 27.2676815,40.562375 27.2045704,40.740875 C27.1449654,40.868625 27.1081506,40.963125 27.0187432,41.052375 C27.0187432,41.089125 26.9942,41.110125 26.9942,41.110125 L26.9942,41.141625 C26.9556321,41.141625 26.8960272,41.141625 26.8662247,41.110125 C26.8662247,41.174875 26.7768173,41.174875 26.7470148,41.174875 C26.4121753,41.141625 26.2210889,40.721625 26.4700272,40.495875 C26.6260519,40.371625 26.8083728,40.403125 26.9556321,40.347125 C26.9556321,40.347125 27.0187432,40.252625 27.0187432,40.152875 C27.0538049,40.060125 27.0538049,39.972625 27.0187432,39.878125 C27.0187432,39.808125 26.9556321,39.780125 26.8662247,39.780125 C26.7768173,39.750375 26.689163,39.750375 26.6260519,39.780125 C26.4121753,39.780125 26.1965457,39.907875 26.0335086,40.060125 C25.695163,40.403125 25.6338049,40.963125 25.9405951,41.327125 C26.1281753,41.605375 26.689163,41.822375 27.0187432,41.668375 C27.0818543,41.636875 27.1081506,41.605375 27.1747679,41.580875 C27.3623481,41.580875 27.0818543,42.130375 27.6095333,42.069125 C27.6726444,42.069125 27.7883481,42.041125 27.826916,41.978125 C27.8882741,41.762875 27.7883481,41.327125 27.7883481,41.089125 C27.7673111,40.592125 27.7322494,40.060125 27.7883481,39.566625 C27.9461259,39.538625 28.1021506,39.508875 28.251163,39.508875 C28.596521,39.473875 28.9646691,39.473875 29.2714593,39.416125 C29.3012617,39.444125 29.3012617,39.508875 29.3345704,39.538625 C29.3626198,39.633125 29.2416568,39.664625 29.1820519,39.718875 C28.6841753,39.718875 28.0705951,39.843125 28.251163,40.495875 C28.2862247,40.614875 28.4387432,40.683125 28.4387432,40.837125 C28.4071877,40.984125 28.3475827,41.141625 28.312521,41.300875 C28.251163,42.041125 28.7472864,42.375375 29.3345704,42.560875 C29.3345704,42.499625 29.3994346,42.499625 29.429237,42.469875 C29.4555333,42.375375 29.4555333,42.216125 29.429237,42.130375 C29.3345704,41.916875 28.9962247,41.943125 28.9068173,41.726125 C28.6841753,41.300875 29.1189407,40.963125 29.5186444,40.963125 C29.5800025,40.984125 29.6413605,40.984125 29.7009654,41.020875 C29.7658296,41.089125 29.8219284,41.174875 29.7973852,41.300875 C29.7658296,41.369125 29.732521,41.412875 29.7009654,41.489875 C29.6694099,41.699875 29.7973852,41.852125 30.0112617,41.762875 C30.6265951,41.547625 30.4477802,40.683125 29.9201012,40.467875 C29.855237,40.434625 29.7658296,40.434625 29.7009654,40.403125 L29.3994346,40.403125 C29.2136074,40.434625 29.062842,40.495875 28.8700025,40.434625 C28.8700025,40.091625 29.3626198,40.152875 29.7009654,40.091625 C29.7658296,40.091625 29.8219284,40.060125 29.8850395,40.028625 C30.0726198,39.878125 29.7973852,39.473875 30.0112617,39.388125 C30.0726198,39.349625 30.2917556,39.328625 30.3548667,39.388125 C30.4477802,39.538625 30.4109654,39.718875 30.4740765,39.907875 C30.6599037,40.495875 30.6599037,41.204625 30.9386444,41.762875 C31.0578543,41.762875 31.3050395,41.699875 31.3663975,41.605375 C31.4295086,41.456625 31.0578543,39.907875 30.9964963,39.633125 C30.9649407,39.538625 30.8755333,39.349625 30.9035827,39.227125 C30.9035827,39.197375 31.4295086,39.046875 31.5224222,39.197375 C31.5855333,39.291875 31.7362988,39.972625 31.7362988,40.091625 C31.7047432,40.187875 31.5469654,40.217625 31.5469654,40.303375 C31.4540519,40.683125 32.0711383,40.868625 32.3200765,40.931625 C32.3200765,40.898375 32.409484,40.868625 32.4445457,40.803875 C32.4445457,40.721625 32.4445457,40.592125 32.4743481,40.523875 C32.5339531,40.434625 32.6882247,40.434625 32.7776321,40.303375 C32.8407432,40.303375 32.6882247,39.934125 32.6584222,39.907875 C32.5690148,39.907875 32.4743481,39.972625 32.3814346,39.907875 C32.2324222,39.843125 32.0711383,39.137875 32.1342494,39.013625 C32.1991136,38.864875 32.6882247,38.775625 32.8407432,38.826375 C32.9354099,38.826375 33.0283235,38.927875 33.0581259,39.013625 C33.1492864,39.172875 33.0896815,39.388125 32.9003481,39.473875 C32.8722988,39.508875 32.8091877,39.508875 32.7776321,39.566625 C32.7180272,39.697875 32.7513358,39.843125 32.7776321,39.934125 C32.8722988,40.187875 33.1177309,40.403125 33.3999778,40.495875 C33.587558,40.562375 33.8014346,40.592125 33.9574593,40.523875 C34.2309407,40.467875 34.3834593,40.303375 34.5955827,40.117875 L34.5955827,40.091625 C34.8480272,40.091625 34.6306444,40.837125 35.1548173,40.592125 C35.2529901,40.562375 35.310842,40.523875 35.3441506,40.467875 C35.3984963,40.467875 35.310842,40.277125 35.310842,40.217625 C35.1548173,39.697875 34.9023728,39.227125 34.7516074,38.740625 C34.6937556,38.590125 34.5692864,38.395875 34.5955827,38.247125 C34.5955827,38.100125 35.7403481,37.601375 35.9542247,37.564625 L35.9542247,37.601375 C35.9840272,37.601375 35.9542247,37.718625 35.9244222,37.751875 C35.8630642,37.849875 35.7052864,37.911125 35.5895827,37.970625 C35.2775333,38.117625 35.0321012,38.395875 35.1846198,38.803625 C35.2775333,38.983875 35.4282988,39.080125 35.6439284,39.113375 C35.6439284,39.291875 35.554521,39.444125 35.5895827,39.633125 C35.6176321,40.152875 36.0786938,40.523875 36.630916,40.523875 C36.7553852,40.523875 36.8798543,40.495875 37.0043235,40.495875 L37.0043235,40.467875 C37.0323728,40.467875 37.0043235,40.347125 37.0043235,40.303375 C36.9727679,40.217625 36.9727679,40.117875 36.9114099,40.060125 C36.6642247,39.843125 36.2627679,40.060125 36.1979037,39.603375 C36.1979037,39.473875 36.1979037,39.388125 36.2277062,39.262125 C36.3626938,39.046875 36.8202494,38.775625 37.0043235,39.080125 C37.0621753,39.172875 37.0043235,39.291875 37.0043235,39.388125 C37.0323728,39.603375 37.1533358,39.808125 37.3689654,39.633125 C37.866842,39.227125 37.4022741,38.210375 36.7255827,38.395875 C36.5432617,38.395875 36.3819778,38.427375 36.2277062,38.523625 C36.1347926,38.551625 36.0436321,38.644375 35.9542247,38.679375 C35.8630642,38.679375 35.7982,38.611125 35.7403481,38.590125 C35.7403481,38.275125 36.5432617,38.152625 36.6642247,37.944375 C36.7869407,37.718625 36.4187926,37.475375 36.5117062,37.279375 C36.5432617,37.223375 36.630916,37.200625 36.6642247,37.162125 C36.7255827,37.130625 36.8202494,37.069375 36.9394593,37.106125 C37.0621753,37.130625 37.3689654,37.631125 37.3689654,37.751875 C37.3689654,37.849875 37.3111136,37.911125 37.2830642,38.000375 C37.2515086,38.065125 37.2830642,38.117625 37.3111136,38.180625 C37.4022741,38.339875 37.8002247,38.427375 37.9913111,38.427375 C38.1473358,38.427375 38.3910148,38.369625 38.3261506,38.152625 C38.3261506,38.100125 38.2647926,38.000375 38.2998543,37.944375 C38.3577062,37.849875 38.4506198,37.820125 38.5452864,37.751875 C38.6048914,37.718625 38.6627432,37.659125 38.7574099,37.694125 C39.0361506,37.718625 39.2167185,38.497375 39.5270148,38.369625 C39.5883728,38.339875 39.6830395,38.304875 39.7093358,38.247125 C39.7759531,38.180625 39.8057556,38.117625 39.8057556,38.065125 M24.218363,39.56715 C24.218363,39.7194 24.1938198,40.1534 24.0675975,40.18665 L23.8817704,40.18665 C23.7871037,40.18665 23.6696469,40.1534 23.5732272,40.1534 L23.5732272,40.11665 C23.5451778,40.11665 23.5451778,40.09215 23.5451778,40.09215 C23.5732272,39.8419 23.6047827,39.44465 23.7292519,39.2609 C23.7871037,39.2609 23.8484617,39.2609 23.8817704,39.2924 C24.0044864,39.2924 24.1289556,39.3274 24.218363,39.3869 C24.2814741,39.3869 24.218363,39.5374 24.218363,39.56715 M21.8850049,39.08065 C21.8218938,39.1979 21.7272272,39.1979 21.664116,39.1979 C21.5729556,39.17165 21.4537457,39.11215 21.3853753,39.08065 L21.3853753,39.0474 C21.4817951,39.0474 21.5729556,38.9284 21.664116,38.8024 C21.6974247,38.7079 21.7272272,38.5889 21.7605358,38.55215 C21.8218938,38.5889 21.7885852,38.67815 21.8218938,38.77615 C21.846437,38.8269 21.8850049,38.8654 21.9095481,38.9284 C21.9095481,38.9844 21.9095481,39.0474 21.8850049,39.08065 M20.8647086,38.5224 L20.8647086,38.4979 C20.8314,38.4979 20.8314,38.4979 20.8647086,38.4664 C20.8647086,38.3964 20.9558691,38.27565 20.9909309,38.24765 C21.1118938,38.27565 21.2924617,38.30365 21.2609062,38.4979 C21.2030543,38.6449 20.9558691,38.67815 20.8647086,38.5224 M16.3662889,36.76015 C16.2453259,36.9824 16.0910543,37.3499 15.8193259,37.4479 L15.7877704,37.4479 C15.416116,37.5354 15.1373753,37.16265 15.1373753,36.85815 L15.1654247,36.85815 C15.1654247,36.79865 15.2583383,36.8249 15.2916469,36.8249 C15.4774741,36.8249 15.6633012,36.76015 15.8193259,36.6744 C15.9087333,36.6394 15.9700914,36.5834 16.0016469,36.5134 C16.0630049,36.42415 16.1208568,36.30165 16.1804617,36.2089 C16.2733753,36.23515 16.4942642,36.3909 16.5188074,36.5134 C16.5188074,36.6079 16.3995975,36.7024 16.3662889,36.76015 M24.5321654,38.8654 C24.4708074,38.8654 24.4094494,38.8654 24.3796469,38.8269 C24.218363,38.8269 24.0675975,38.77615 23.8817704,38.7394 C23.7292519,38.7079 23.5451778,38.67815 23.3593506,38.6449 C23.184042,38.61165 22.9614,38.5889 22.800116,38.5224 C22.5283877,38.3684 22.6213012,37.99915 22.4302148,37.82065 C22.3706099,37.7524 22.312758,37.7174 22.2180914,37.6579 C22.130437,37.63165 22.007721,37.63165 21.8850049,37.6579 C21.8850049,37.8504 22.130437,38.11815 22.0375235,38.27565 C22.0375235,38.3404 21.9095481,38.3684 21.846437,38.4664 L21.7605358,38.4664 C21.7605358,38.3404 21.6974247,38.2109 21.664116,38.10065 C21.4817951,37.8504 21.1416963,37.7524 20.8647086,37.7734 C20.649079,37.82065 20.4614988,37.91165 20.3738444,38.10065 C20.3142395,38.10065 20.3405358,37.97115 20.3405358,37.91165 C20.3405358,37.8504 20.2791778,37.7734 20.2160667,37.7524 C20.0337457,37.69465 19.8479185,37.6019 19.6620914,37.5354 C19.2939432,37.38315 18.8959926,37.1994 18.5576469,36.9824 C18.4349309,36.92115 18.2105358,36.85815 18.1211284,36.7304 C17.9335481,36.5134 18.0282148,35.8414 17.8160914,35.73815 C17.688116,35.7119 17.5373506,35.7119 17.4181407,35.73815 C17.4181407,35.93765 17.5075481,36.1144 17.4759926,36.3349 L17.4479432,36.3349 C17.4181407,36.3349 17.4181407,36.36115 17.4181407,36.3349 C17.3252272,36.3349 17.1692025,36.2089 17.078042,36.1774 C16.7730049,35.99365 16.4942642,35.73815 16.2172765,35.56665 C16.0910543,35.4669 15.9700914,35.3479 15.8193259,35.2569 C15.7281654,35.1974 15.6317457,35.13265 15.5107827,35.13265 C15.4494247,35.2289 15.3214494,35.3164 15.2916469,35.4424 C15.2916469,35.68915 15.7281654,35.80815 15.5703877,36.05315 C15.2583383,36.5834 14.9217457,35.8414 14.6430049,36.46265 C14.5886593,36.5834 14.5518444,36.7304 14.5518444,36.8879 C14.5185358,37.27815 14.7341654,37.7524 15.0742642,37.91165 C15.1654247,37.94315 15.3863136,37.99915 15.4494247,38.11815 C15.4774741,38.24765 15.3214494,38.3964 15.2302889,38.4979 C15.2302889,38.5889 15.2916469,38.6449 15.3863136,38.7079 C15.4494247,38.7394 15.6001901,38.89165 15.6913506,38.8269 C15.7527086,38.8269 15.7877704,38.8024 15.8193259,38.7394 C15.9087333,38.61165 15.9700914,38.4664 16.0332025,38.3684 C16.306684,37.94315 16.5871778,37.5354 16.8641654,37.1294 C16.9220173,37.03665 16.9851284,36.8879 17.078042,36.85815 C17.1692025,36.8249 17.200758,36.85815 17.262116,36.8879 C17.3252272,36.9439 17.3550296,36.9824 17.3550296,37.06815 C17.2936716,37.4479 16.0016469,38.9529 16.306684,39.22765 C16.3995975,39.2924 16.5871778,39.44465 16.6748321,39.3869 C16.7730049,39.35015 17.1376469,38.5889 17.200758,38.4664 C17.4479432,38.06565 17.688116,37.6579 17.9335481,37.27815 C18.0282148,37.27815 18.1211284,37.38315 18.2105358,37.4059 C18.3087086,37.4479 18.4349309,37.5039 18.4945358,37.63165 C18.5576469,37.7734 18.4349309,38.1514 18.3700667,38.30365 C18.3087086,38.3684 18.2736469,38.4279 18.2526099,38.5224 L18.1509309,38.5224 C18.1509309,38.11815 17.7249309,38.10065 17.5373506,38.3964 C17.3550296,38.7394 17.5373506,39.3869 17.9966593,39.35015 C18.5576469,39.3274 18.8293753,38.6449 18.9836469,38.24765 C19.0187086,38.1514 19.0485111,37.99915 19.1379185,37.94315 C19.1992765,37.87315 19.2939432,37.97115 19.3570543,37.99915 C19.2939432,38.11815 19.2360914,38.27565 19.1747333,38.4279 C19.0485111,38.7079 18.9520914,39.01415 18.803079,39.3274 C18.7382148,39.47265 18.4349309,40.0589 18.4647333,40.18665 C18.4945358,40.2759 18.6470543,40.37215 18.7382148,40.40365 C18.803079,40.43515 18.9205358,40.4684 18.9520914,40.37215 C19.0485111,40.21815 19.1098691,40.0589 19.1747333,39.93465 C19.3851037,39.3869 19.6322889,38.8654 19.8812272,38.30365 C19.9723877,38.1514 20.1564617,38.3684 20.2476222,38.1514 L20.3142395,38.1514 C20.3142395,38.24765 20.2791778,38.30365 20.2791778,38.3964 C20.2791778,38.55215 20.3405358,38.7079 20.3142395,38.8024 C20.2476222,38.9284 20.000437,39.01415 19.9075235,39.1384 C19.5709309,39.56715 19.5095728,40.18665 20.000437,40.56115 C20.1284123,40.65565 20.3142395,40.68365 20.4614988,40.7414 C20.4983136,40.7414 20.4054,41.0214 20.4316963,41.08965 C20.5561654,41.08965 20.649079,41.1754 20.8051037,41.1754 C20.8314,41.1754 20.8314,41.1404 20.8647086,41.1404 C21.0452765,41.11065 20.9909309,40.8044 21.0803383,40.68365 C21.1416963,40.59265 21.2609062,40.5244 21.3555728,40.4684 C21.3555728,40.3039 21.2609062,40.1534 21.2030543,40.00115 C21.0803383,40.00115 20.9558691,40.0589 20.8647086,40.09215 C20.6806346,40.1534 20.526363,40.21815 20.3738444,40.02915 C20.3142395,39.9714 20.2791778,39.87865 20.2791778,39.78065 C20.3142395,39.6039 20.4983136,39.2924 20.7367333,39.35015 C20.7735481,39.35015 20.8051037,39.3869 20.8647086,39.3869 C20.9260667,39.41665 20.9909309,39.44465 21.0452765,39.47265 C21.2030543,39.5374 21.3555728,39.56715 21.5133506,39.66515 C21.5729556,39.69665 21.6378198,39.74915 21.664116,39.78065 L21.664116,39.80865 C21.6974247,39.87865 21.6974247,40.00115 21.664116,40.1534 C21.6045111,40.43515 21.5133506,40.7414 21.4817951,40.8989 C21.4537457,40.98465 21.3853753,41.1404 21.418684,41.2384 C21.4537457,41.32765 21.5449062,41.32765 21.6045111,41.3679 C21.6045111,41.3679 21.6378198,41.39065 21.664116,41.39065 C21.6974247,41.39065 21.7605358,41.4134 21.8218938,41.39065 C21.8850049,41.39065 21.9095481,41.32765 21.9446099,41.2699 C21.9709062,41.11065 22.007721,40.96365 22.0375235,40.7729 C22.130437,40.43515 22.2514,40.0589 22.3443136,39.7194 C22.4004123,39.5094 22.4004123,39.22765 22.5283877,39.0474 C22.5283877,38.9529 23.0245111,39.11215 23.082363,39.1384 C23.082363,39.22765 23.082363,39.3274 23.1139185,39.41665 C23.082363,39.6039 23.0245111,39.90665 22.8684864,40.02915 C22.7738198,40.1534 22.6213012,40.11665 22.5879926,40.3039 C22.5283877,40.5244 22.900042,41.08965 23.1139185,41.11065 C23.5118691,41.1754 23.2383877,40.59265 23.7608074,40.7204 C23.7871037,40.7204 23.8484617,40.7204 23.8817704,40.7414 C23.9413753,40.7414 23.976437,40.7414 24.0044864,40.7729 C24.2551778,40.96365 23.7292519,41.7634 24.158758,41.85265 C24.2551778,41.85265 24.3147827,41.8824 24.4094494,41.85265 C24.4708074,41.8229 24.5321654,41.7949 24.5321654,41.7004 L24.5602148,41.7004 L24.5602148,41.1404 C24.6531284,40.59265 24.7442889,40.02915 24.8056469,39.44465 L24.8389556,39.44465 C24.8389556,39.41665 24.8056469,39.41665 24.8389556,39.41665 C24.928363,39.41665 24.9879679,39.41665 25.0528321,39.3869 C25.1737951,39.3274 25.2369062,39.08065 25.1387333,38.9844 C25.0528321,38.89165 24.7442889,38.8654 24.5321654,38.8654 M40.0766074,38.30435 C39.9556444,38.3971 39.8346815,38.4671 39.7102123,38.55285 C39.7102123,38.5896 39.682163,38.5896 39.6506074,38.61235 C39.6506074,38.70685 39.682163,38.77685 39.7102123,38.8031 C39.8066321,38.8276 39.9275951,38.8031 40.0766074,38.70685 C40.2624346,38.5896 40.4780642,38.3971 40.5131259,38.3411 C40.4780642,38.3411 40.3553481,38.18185 40.2624346,38.1521 C40.2063358,38.18185 40.1432247,38.24835 40.0766074,38.30435" id="Shape" fill="#FFFFFF" fill-rule="nonzero" mask="url(#mask-56)"></path>
                </g>
            </g>
        </g>
    </g>
</svg>