<?xml version="1.0" encoding="UTF-8"?>
<svg width="93px" height="60px" viewBox="0 0 93 60" version="1.1" xmlns="http://www.w3.org/2000/svg" xmlns:xlink="http://www.w3.org/1999/xlink">
    <!-- Generator: Sketch 48.2 (47327) - http://www.bohemiancoding.com/sketch -->
    <title>Hdfc-life</title>
    <desc>Created with Sketch.</desc>
    <defs>
        <polygon id="path-1" points="0 0.1935 38.304 0.1935 38.304 38.4915 0 38.4915"></polygon>
        <polygon id="path-3" points="0.825 0 10.857 0 10.857 13.755 0.825 13.755"></polygon>
    </defs>
    <g id="Page-1" stroke="none" stroke-width="1" fill="none" fill-rule="evenodd">
        <g id="Hdfc-life" transform="translate(-44.000000, -35.000000)">
            <g id="hdfc-life" transform="translate(44.000000, 35.000000)">
                <path d="M10.92105,11.055 L27.44205,11.055 L27.43905,27.5715 L38.30355,38.469 C38.33505,38.415 38.32455,38.4615 38.33955,38.361 L38.34705,0.1485 C35.18955,0.072 31.93755,0.1455 28.76805,0.1455 C19.40055,0.1455 9.97755,0.18 0.61455,0.1455 L0.02805,0.195 L10.92105,11.055 Z" id="Shape" fill="#EC1C24" fill-rule="nonzero"></path>
                <g id="Clipped">
                    <mask id="mask-2" fill="white">
                        <use xlink:href="#path-1"></use>
                    </mask>
                    <g id="hdfc-life-a"></g>
                    <path d="M38.3034,38.46945 L27.4389,27.57045 L10.9329,27.55995 L10.9209,11.05545 L0.0279,0.19395 C-0.0351,9.70995 0.0279,19.34895 0.0279,28.88745 L0.0294,38.26995 C0.0324,38.28495 0.0339,38.29845 0.0369,38.31195 C0.0654,38.45745 0.1089,38.46345 0.3159,38.47245 C1.3134,38.51595 3.7569,38.46945 4.7904,38.46945 C15.9489,38.46945 27.1584,38.51295 38.3034,38.46945" id="Shape" fill="#C3161C" fill-rule="nonzero" mask="url(#mask-2)"></path>
                </g>
                <path d="M69.05625,25.24935 C68.60775,25.25835 67.79475,25.17285 67.45575,25.31835 C66.67125,25.65585 66.79125,26.60535 66.80175,27.36135 L69.00675,27.36435 L69.00975,33.55635 C68.11575,34.34235 65.14725,36.70185 63.95475,35.17035 C63.74175,34.89885 63.55575,34.51485 63.55575,34.04685 C63.55575,33.21735 63.60975,27.14535 63.52575,26.80485 C63.15525,25.29435 60.68775,24.90585 59.37975,24.90735 C58.82325,24.90885 58.39725,25.27785 58.39725,25.84185 L58.39725,35.22585 C58.39725,36.37185 58.95975,37.88085 60.11475,38.47035 C62.28525,39.57885 65.87625,37.90485 67.62525,36.73935 C68.12475,36.40635 68.95275,35.72085 69.10275,35.62485 C69.13725,36.50235 69.05625,39.80685 69.18375,40.40835 C69.37725,41.31435 70.21725,41.17185 70.92675,41.17185 C71.28675,41.17035 71.88075,41.02785 72.16125,40.93335 C73.22325,40.57785 74.21925,39.74385 74.21775,38.41935 C74.21325,34.81935 74.17275,30.88185 74.21925,27.31935 C75.01575,27.30135 75.83175,27.31035 76.62675,27.31635 C77.06925,27.31935 77.32425,27.25185 77.58975,27.05085 C78.12525,26.64735 78.00825,25.91985 77.99925,25.15635 L74.22075,25.15485 C74.05275,23.45685 74.10375,21.01035 75.83775,20.14185 C77.23875,19.43985 78.16125,20.05035 78.57225,19.92885 C79.21425,19.73835 78.90075,17.24085 74.90625,17.24235 C73.39875,17.24235 71.75775,17.60535 70.74075,18.63135 C70.29525,19.08135 69.87075,19.59285 69.60525,20.24685 C68.83275,22.15485 69.10425,23.24535 69.05625,25.24935 M76.96935,32.42565 C76.96935,35.74065 78.37635,37.41465 81.63135,38.37765 C82.77585,38.71515 84.78585,38.88615 85.96185,38.81415 C87.61635,38.70915 89.01285,38.42865 90.42285,37.52565 C90.94035,37.19415 91.39785,36.82365 91.79685,36.39465 C91.97535,36.20265 92.18685,35.92365 92.30085,35.66865 C92.46435,35.30415 92.52735,35.01615 92.29935,34.68915 C91.85685,34.68015 91.69635,34.93965 91.00635,35.26065 C89.00085,36.19065 86.77785,36.99615 84.57885,36.26565 C84.10785,36.10815 83.67735,35.86215 83.36835,35.55915 C81.61185,33.83565 81.97935,29.98965 84.23235,28.63365 C85.23885,28.02465 87.33135,27.87465 87.77085,29.28915 C88.11435,30.39465 87.29535,31.26465 86.47485,31.75965 C85.64085,32.26215 84.34485,32.55915 83.31135,32.57565 C83.42835,33.03165 83.97585,33.59565 84.37335,33.81765 C84.62685,33.95865 84.92685,34.07265 85.22235,34.14615 C86.51235,34.47315 87.71235,34.25415 88.92885,33.82065 C90.86985,33.12765 92.29785,31.59765 92.29935,29.37915 C92.30085,29.01915 92.14785,28.26015 92.03385,27.97365 C91.86585,27.55065 91.67835,27.22965 91.42335,26.91465 C89.73285,24.82665 85.83285,25.06515 83.45085,25.54215 C81.72435,25.89015 79.52235,27.07215 78.62085,28.22865 C77.87535,29.17965 77.50185,29.63565 77.17635,30.96015 C77.08785,31.31715 76.96935,32.02365 76.96935,32.42565 M43.9518,20.241 L43.9503,37.437 C43.9518,38.181 44.7363,38.7135 45.2298,38.7135 C49.1853,38.7135 53.3853,38.7585 57.3123,38.712 C57.3408,37.005 57.6393,35.4225 55.6938,35.4225 L49.6998,35.4225 C49.3803,35.4465 49.5588,35.478 49.1133,35.469 L49.1103,33.3585 C49.1103,33.12 49.1583,33.081 49.1613,32.8215 C49.2003,29.9595 49.1208,26.937 49.1583,24.0705 C49.1613,23.832 49.2078,23.7225 49.2078,23.4825 L49.2078,21.6165 C49.2078,19.8705 46.5228,19.257 45.1293,19.257 C44.4213,19.257 43.9518,19.539 43.9518,20.241" id="Shape" fill="#0071BB" fill-rule="nonzero"></path>
                <polygon id="Shape" fill="#EC1C24" fill-rule="nonzero" points="43.9515 13.407 48.075 13.41 48.078 8.1555 52.203 8.1525 52.206 13.407 56.379 13.41 56.382 0.294 52.209 0.291 52.206 5.202 48.081 5.205 48.078 0.294 43.9545 0.291"></polygon>
                <path d="M58.3512,0.2943 L58.3497,13.4073 C58.9587,13.4208 59.6397,13.5648 60.2622,13.5588 C60.6402,13.5543 60.8487,13.6083 61.2477,13.6068 L63.7527,13.6548 C65.2122,13.6563 67.3287,13.2093 68.3832,12.1953 C69.5067,11.1168 69.9927,9.2958 69.9927,7.7103 L69.9927,5.9433 C69.9702,5.6403 69.9357,5.7723 69.9447,5.3523 C69.9627,4.3908 69.4842,2.8833 68.9052,2.1168 C67.8222,0.6843 66.3192,0.2958 64.5312,0.1023 L60.3642,0.1443 C59.6877,0.1428 58.9962,0.2793 58.3512,0.2943 Z M62.3802,10.7043 L62.3772,2.9973 C63.5817,2.9718 64.8687,2.9103 65.3757,3.6318 C65.9142,4.3938 65.8662,5.5803 65.8662,6.8253 C65.8662,10.4103 65.5677,10.7688 62.3802,10.7043 Z M71.5656,13.40745 L75.7371,13.41045 L75.7416,8.05845 L80.7501,8.05545 L80.7531,5.45295 L75.7446,5.44995 L75.7416,3.14445 C76.0056,3.13695 80.8371,3.16995 81.0276,3.12045 C81.1221,3.09495 81.1206,3.06945 81.1356,2.98395 C81.1476,2.92095 81.1491,2.86545 81.1506,2.80095 L81.1431,0.29445 L71.5686,0.29145 L71.5656,13.40745 Z" id="Shape" fill="#EC1C24" fill-rule="nonzero"></path>
                <g id="Group" transform="translate(81.000000, 0.000000)">
                    <g id="Clipped">
                        <mask id="mask-4" fill="white">
                            <use xlink:href="#path-3"></use>
                        </mask>
                        <g id="hdfc-life-c"></g>
                        <path d="M0.83415,5.69655 C0.83415,7.33905 0.72915,8.93655 1.25715,10.53105 C1.54815,11.40405 1.83765,11.83305 2.39415,12.39105 C3.11715,13.11855 4.45665,13.56105 5.55315,13.65555 L6.97665,13.75455 C7.21065,13.75305 7.22715,13.71105 7.46565,13.70355 C7.64415,13.69905 7.83165,13.71255 8.00865,13.70655 C8.34915,13.69605 10.35765,13.49505 10.68465,13.38555 C10.82415,13.33905 10.85865,13.41705 10.85715,13.16505 L10.85715,10.56255 C9.69915,10.65855 7.18515,10.89705 6.19515,10.50555 C5.95665,10.41255 5.71965,10.19805 5.56965,10.00005 C5.25765,9.58755 5.05815,8.72805 5.05815,8.25105 C5.05815,7.23255 4.96365,5.33205 5.22615,4.43805 C5.30715,4.16055 5.47665,3.80505 5.63565,3.61905 C5.82015,3.40755 6.04215,3.26055 6.35415,3.15855 C7.24365,2.86455 7.98915,3.04605 8.64615,3.04305 C9.50715,3.04005 10.23315,3.14805 10.85565,3.13905 L10.85565,0.34455 L9.13365,0.10005 C8.47365,0.04305 7.94415,-0.00045 7.22265,-0.00045 C4.92615,-0.00045 2.63415,0.26655 1.57065,2.40405 C1.34865,2.84955 1.16265,3.34605 1.05315,3.89955 C0.99015,4.20705 0.96315,4.43505 0.92415,4.75305 C0.89865,4.95105 0.83415,5.50005 0.83415,5.69655" id="Shape" fill="#EC1C24" fill-rule="nonzero" mask="url(#mask-4)"></path>
                    </g>
                </g>
                <path d="M58.0524,20.9778 C58.0524,21.9318 58.1529,22.5138 59.0769,23.1963 C59.6049,23.5848 60.5214,23.8863 61.1334,23.8158 C62.5899,23.6433 63.9999,22.9698 63.9984,21.2718 C63.9984,20.1228 63.3174,19.3368 62.3079,18.9333 C61.8654,18.7563 61.7004,18.7623 61.1664,18.6948 C60.4674,18.6033 59.5284,18.9708 59.1054,19.2768 C58.6224,19.6293 58.0524,20.3073 58.0524,20.9778" id="Shape" fill="#0071BB" fill-rule="nonzero"></path>
                <path d="M40.75695,51.7806 C40.78845,51.4041 40.59195,51.1176 40.29645,51.0621 C39.87045,50.9871 39.15945,51.7881 38.92695,52.0191 C38.72745,52.2171 38.49045,52.4256 38.31645,52.6341 L36.68145,54.5301 C36.66495,53.3001 37.40295,50.5131 37.67445,49.1436 C37.78845,48.5676 38.05695,47.7051 37.51395,47.7066 C36.98145,47.7081 36.92295,47.8896 36.55395,48.0051 C36.64545,49.1661 36.46995,49.9536 36.27345,51.0831 C36.21795,51.4041 35.88195,53.4066 35.71095,53.6181 C35.25195,54.1821 33.79395,55.2246 32.99445,55.2246 C32.52345,55.2231 32.10945,55.0521 32.10945,54.5361 C32.10795,53.8791 32.57895,52.0941 32.79645,51.6396 C33.20295,51.6321 33.86595,51.5991 34.23195,51.5496 C34.98795,51.4446 34.84695,51.1596 34.70895,50.7096 C34.44195,50.8266 33.39045,50.9526 32.99595,50.9466 C33.11895,50.3796 33.56745,49.2786 32.84745,49.2786 C32.46345,49.2801 32.17245,49.4871 31.91445,49.6236 C32.01345,50.0811 31.96395,50.5806 31.91145,51.0471 L30.83295,51.0516 C30.65895,51.3741 30.54795,51.6876 30.93045,51.6876 L31.81095,51.6396 C31.81245,51.9021 31.55445,52.7991 31.48245,53.0736 C31.43145,53.2761 31.45245,53.2491 31.32495,53.3586 C30.52095,54.0591 29.17545,55.0761 28.08045,55.0761 C27.07695,55.0776 27.34995,53.7261 27.49995,53.1711 C27.87045,51.8211 28.45095,51.3921 27.78645,51.3921 C27.55995,51.3921 27.04845,51.3411 26.91345,51.5511 C26.84595,51.6591 26.48445,52.9206 26.17395,53.4171 C25.84245,53.9481 25.20945,54.8286 24.39645,54.8301 C22.98045,54.8331 23.71395,53.1651 24.07995,52.4991 C24.48495,51.7611 25.03845,51.3426 24.49395,51.3426 C24.18645,51.3426 23.61195,51.3171 23.44245,51.6186 C23.16345,52.1106 22.67595,53.6361 22.67595,54.1926 C22.67595,54.7806 22.68795,55.8126 23.65995,55.8126 L23.90445,55.8126 C24.78795,55.8126 25.98195,54.7881 26.36295,54.2961 C26.52495,54.5541 26.36145,56.9151 29.75145,55.2246 C30.02295,55.0896 30.25695,54.9651 30.50895,54.8031 C30.64695,54.7116 30.72495,54.6591 30.86145,54.5661 C30.99045,54.4791 31.08345,54.3771 31.22445,54.3411 C31.06545,55.0656 31.03395,56.0106 32.10945,56.0106 C32.92845,56.0106 33.64245,55.7616 34.28895,55.4376 C35.07795,55.0401 35.52045,54.6501 35.83995,54.4941 L35.79645,55.6176 C36.08145,55.7676 36.62295,55.8996 36.97545,55.8126 C36.97545,55.8126 38.45145,52.7196 39.59145,52.4751 C39.49395,53.3916 39.40845,54.5286 39.94245,55.3026 C40.63845,56.3076 42.40095,55.7856 43.15245,55.1136 L43.60245,54.6891 C43.75845,55.7841 44.10345,56.0091 44.88495,56.0106 C45.58995,56.0106 46.75545,55.2816 47.20695,54.8436 L47.78445,54.2931 C47.88345,54.4461 47.85045,54.5886 47.97945,54.8796 C48.07695,55.0986 48.12795,55.2021 48.28695,55.3611 C48.69495,55.7721 48.92595,55.8636 49.55295,55.8636 C50.28795,55.8636 51.91995,55.0896 52.05795,54.5856 C51.96495,54.4446 51.80745,54.3366 51.66495,54.2436 C51.51945,54.2961 51.53895,54.3276 51.33345,54.4986 C50.82495,54.9216 50.44545,55.0281 49.79745,55.0281 C49.16445,55.0281 48.76695,54.2931 48.76695,53.6511 C48.76695,52.0551 49.07595,52.4661 48.48345,51.8706 C48.22545,51.6081 47.88795,51.4326 47.45895,51.3231 C46.16445,50.9991 44.95095,51.7941 44.23845,52.7586 C43.88445,53.2386 43.05345,55.0326 41.73945,55.0281 L41.69145,55.0281 C41.31195,55.0266 41.01195,54.8346 40.86945,54.5706 C40.37595,53.6511 40.69095,52.5771 40.75695,51.7806 Z M47.78445,52.9146 C47.46495,53.5566 46.15395,55.2861 45.23295,55.2216 C43.69545,55.1136 45.28695,51.3036 47.09745,52.0296 C47.36745,52.1376 47.96895,52.5456 47.78445,52.9146 Z M20.4645,50.553 C20.55,50.397 20.79,49.749 20.8005,49.56 C20.8305,49.0005 18.294,49.158 16.308,52.542 C16.1865,52.752 15.9735,53.2095 15.852,53.3505 C15.8445,52.8645 16.4145,51.867 16.2405,51.489 C15.936,51.3495 15.4425,51.5655 15.162,51.6405 C15.1545,51.924 15.216,52.131 15.21,52.4745 C15.1875,53.7615 15.096,53.481 14.3835,54.1545 C13.8855,54.6285 12.891,55.4595 12.1995,54.939 C11.379,54.324 12.012,52.4715 11.934,52.2615 C11.751,51.7725 10.62,51.09 9.6045,51.3405 C6.069,52.212 5.7855,57.2535 9.0165,55.8135 C10.1085,55.329 10.713,54.4515 10.884,54.3405 L11.115,55.041 C11.8665,56.7915 13.617,55.5315 14.52,54.8325 C14.7225,54.675 14.7615,54.5655 15.006,54.4425 C14.958,54.69 14.8875,55.0605 14.8665,55.326 C14.8245,55.83 14.862,55.887 15.0615,56.151 C15.3225,56.0265 15.639,55.9515 15.8925,55.8135 C15.9285,54.18 16.47,53.139 17.2275,52.1835 C17.5815,51.738 18.03,51.3045 18.528,50.9775 C19.1955,50.5395 19.521,50.4885 20.4645,50.553 Z M7.788,54.291 C7.7865,53.6085 8.358,52.6635 8.9865,52.245 C10.1985,51.4365 11.016,52.5105 10.941,52.8255 C10.8405,53.259 9.8655,54.4125 9.57,54.6975 C8.754,55.4835 7.7895,55.494 7.788,54.291 Z M77.3136,51.5388 C77.1861,51.5868 77.1981,51.5898 77.1351,51.7533 C77.0961,51.8478 77.0826,51.9108 77.0496,52.0113 L76.5606,53.6853 C76.2216,54.6798 72.3006,56.5653 74.0241,52.6713 C74.1201,52.4508 74.4216,51.8703 74.4621,51.6888 C74.1681,51.6123 73.6146,51.2583 73.3596,51.5658 C73.1691,51.7968 73.0386,52.3143 72.9471,52.6263 C72.5106,54.1098 72.0951,56.5128 74.7006,55.8048 C75.5661,55.5693 76.0236,55.0623 76.5231,54.7383 C76.5771,55.5138 77.1246,56.1408 77.9586,55.9668 C78.4626,55.8633 78.9726,55.6023 79.3641,55.3098 C79.5156,55.1958 79.5966,55.1178 79.7661,55.0323 C79.6926,55.4043 79.5546,55.7403 79.4436,56.1258 C79.2201,56.9073 79.0446,57.6378 78.9321,58.4643 C78.8811,58.8348 78.7821,59.3433 78.7896,59.7438 C78.9786,59.8458 79.1556,59.9268 79.4646,59.8818 C80.2596,59.7678 79.8351,59.0733 79.9956,58.0038 C80.0331,57.7518 80.0196,57.4428 80.0496,57.2238 C80.1756,56.3043 80.4501,54.8283 80.9031,54.0963 C81.1686,53.6613 82.0866,52.6098 82.1271,52.0713 C82.1586,51.6423 81.5001,51.4878 81.1461,51.4938 C80.8296,52.0878 80.6031,52.7703 80.3391,53.4348 C80.2671,53.6178 80.2116,53.7678 80.1156,53.8983 C79.7961,54.3348 79.4991,54.6063 79.0026,54.8493 C78.2466,55.2153 77.3286,55.0653 77.4726,54.0078 C77.5206,53.6628 77.6166,53.2143 77.7411,52.8993 C77.8161,52.7073 78.0876,52.0803 78.0981,51.9333 C77.9496,51.7068 77.6781,51.5493 77.3136,51.5388 Z M2.48205,49.1307 C2.48055,48.3897 3.25905,47.7672 4.20255,47.9502 C5.14905,48.1317 5.57505,49.0962 5.82255,49.2777 C6.34005,49.1622 6.97455,48.3612 6.15855,47.8137 C5.89305,47.6352 5.61705,47.5347 5.26305,47.4312 C3.66555,46.9722 1.35255,47.6217 1.35105,49.3767 C1.35105,51.5652 4.66005,52.4277 4.79055,53.9967 C4.90755,55.4097 3.37455,55.4547 2.33955,55.1202 C1.85205,54.9642 1.43355,54.7242 0.91005,54.5832 C0.24855,54.4047 0.03105,54.9972 0.02955,55.5687 C0.29505,55.7562 0.66555,55.8237 1.01805,55.9002 C2.26305,56.1702 3.99555,56.2212 5.03805,55.4712 C5.70555,54.9912 5.92005,54.5262 5.92155,53.7507 C5.92155,52.1607 2.48205,50.7477 2.48205,49.5252 L2.48205,49.1307 Z M60.29205,51.6663 C60.29955,51.6633 60.32205,51.6663 60.32655,51.6513 C60.33105,51.6363 60.35055,51.6438 60.36105,51.6363 C60.36405,50.6748 59.87805,50.7378 59.21055,51.2223 L58.11405,52.1403 C57.76155,52.4973 57.47655,52.8048 57.13155,53.1738 C56.82405,53.5008 56.39055,54.2328 56.23755,54.2883 L56.72655,51.2928 C56.81055,50.7948 56.89455,50.2518 56.96355,49.7613 C57.08805,48.8763 57.17955,48.5838 57.16605,47.7063 C56.72805,47.4948 56.33205,47.8203 55.99155,48.0018 C56.26305,48.6768 55.82055,51.3843 55.74405,52.0788 C55.68855,52.5813 55.61055,53.0853 55.53855,53.5938 C55.50405,53.8413 55.47405,54.1023 55.44105,54.3798 C55.42455,54.5058 55.25955,55.6158 55.33005,55.7313 C55.41255,55.8678 55.59705,55.8138 55.79205,55.8138 C56.18355,55.8138 56.18805,55.7808 56.29305,55.4793 C56.45205,55.0203 56.84355,54.2403 57.21705,53.9973 L58.13955,54.7938 C58.46205,55.1163 59.67255,56.1393 60.05955,56.2668 C60.48555,56.4078 60.93555,55.9683 61.09305,55.7178 C60.74505,55.4598 59.93505,55.2168 59.22405,54.6918 C59.01855,54.5403 57.88455,53.6283 57.71355,53.3598 C58.13655,53.0463 58.50255,52.6818 58.93755,52.3743 C59.65305,51.8703 59.61255,51.8868 60.29205,51.6663 Z M87.82965,53.5047 C88.05015,52.6227 87.66915,51.9627 87.16215,51.6162 C86.59515,51.2277 85.84365,51.1587 85.05915,51.3732 C82.58415,52.0557 81.42465,54.6537 82.96365,55.7667 C84.22965,56.6832 87.26865,55.7322 87.82965,53.5047 Z M86.79915,53.4072 C86.70915,53.8707 86.67165,54.1407 86.26815,54.5982 C85.25865,55.7442 83.05365,55.7052 83.38215,53.8752 C83.54715,52.9632 84.22815,52.3512 84.99765,52.0482 C86.10465,51.6132 87.00915,52.2942 86.79915,53.4072 Z M67.04505,58.27275 C66.65505,58.52325 65.94705,60.16875 68.56755,59.98575 C69.55755,59.91675 70.27605,58.86375 70.56555,58.00725 C70.85505,57.14625 71.15055,53.52975 71.54505,51.96075 C71.61555,51.67875 71.70705,51.43725 71.75955,51.19425 C71.41155,51.01275 71.10105,51.20175 70.63605,51.34725 C70.26555,51.46275 70.31355,51.49875 70.28205,51.87675 C70.27005,52.02825 70.24755,52.06425 70.24005,52.22775 L70.13355,53.64375 C70.01655,54.73125 69.94155,56.09475 69.79905,57.09375 C69.68505,57.90375 69.52305,58.94025 68.93205,59.27325 C68.53905,59.49225 68.00055,59.27475 67.76805,59.06925 C67.49055,58.82325 67.29105,58.54875 67.04505,58.27275 Z" id="Shape" fill="#EC202A" fill-rule="nonzero"></path>
                <path d="M62.03535,54.04665 C62.55285,54.02415 63.76035,53.62665 64.16235,53.42265 C64.69185,53.15415 65.49435,52.77465 65.30685,51.90015 C65.06685,50.77815 62.13735,50.80515 61.25385,53.21565 C60.13935,56.24715 63.86235,56.49165 65.57835,55.32915 C65.96835,55.06665 65.96985,54.76515 65.62035,54.53715 C65.39685,54.59715 64.70535,55.44165 63.56385,55.31565 C62.61585,55.21215 62.21385,54.88365 62.03535,54.04665 M62.08485,53.55165 C62.08335,52.96965 62.65035,51.99765 63.32835,51.85215 C64.50285,51.59865 64.45035,52.78665 63.62085,53.17515 C63.32985,53.31165 62.46885,53.55915 62.08485,53.55165 M91.90635,54.1932 C91.63635,53.7957 91.62135,53.9067 91.53285,53.2872 C91.33635,51.9117 92.54835,48.2022 92.44635,47.3637 C92.38485,46.8552 91.35435,47.3502 91.17135,47.5107 C91.17885,47.8662 91.25835,48.2907 91.21185,48.7302 C91.12485,49.5567 90.80535,50.8452 90.65685,51.8607 C90.11385,55.5927 91.73835,54.9177 91.90635,54.1932 M89.9919,56.4534 C90.0549,56.7549 90.6009,56.9784 91.0224,56.9439 C91.4109,56.9139 91.7319,56.5734 91.5849,56.0874 C91.3704,55.3734 89.7564,55.3164 89.9919,56.4534 M74.3166,49.7694 C74.7996,49.7709 75.1911,49.4709 75.3471,49.1784 C75.7881,48.3624 74.4306,47.9619 73.9131,48.9264 C73.7061,49.3119 73.7796,49.7694 74.3166,49.7694 M71.0235,49.52475 C71.4885,49.52475 71.802,49.27125 72.0165,48.99375 C72.3045,48.62025 72.096,48.17775 71.6445,48.11625 C70.7445,47.99325 70.026,49.52325 71.0235,49.52475" id="Shape" fill="#EC202A" fill-rule="nonzero"></path>
            </g>
        </g>
    </g>
</svg>